<svg width="1920" height="9000" xmlns="http://www.w3.org/2000/svg"><path fill="#fff" d="M0 0h1920v9000H0z"/><rect x="1622" y="8220" width="17.6" height="19.6" fill="#FF3E74" rx="0" transform="matrix(-.21227 .92065 -.9961 -.3908 11630.756 9973.007)"/><rect x="1586" y="6421" width="16.6" height="25.6" fill="#FF3E74" rx="0" transform="matrix(-.31205 .8988 -.9604 -.43837 9175.06 7821.245)"/><rect x="105" y="6736" width="13.6" height="29.6" fill="#B410E1" rx="0" transform="matrix(-.24249 .98297 -.97019 -.19107 5978.286 7936.644)"/><rect x="1460" y="3409" width="14.6" height="22.6" fill="#B410E1" rx="0" transform="matrix(.78289 .78011 -.6479 .63172 3478.505 -13.42)"/><rect x="1296" y="4565" width="12.6" height="25.6" fill="#FF8B4D" rx="0" transform="matrix(-.08679 .98655 -.98875 -.28289 5771.267 4888.683)"/><rect x="978" y="1424" width="18.6" height="30.6" fill="#FF3E74" rx="0" transform="matrix(-.0349 .98737 -.9994 -.37902 2460.18 1349.94)"/><rect x="20" y="8023" width="16.6" height="30.6" fill="#FFC647" rx="0" transform="matrix(-.61752 .59102 -.84204 -.81347 8523.57 14563.49)"/><rect x="1678" y="1680" width="12.6" height="13.6" fill="#B410E1" rx="0" transform="matrix(.34433 1 -1.02408 -.06993 3453.13 238.23)"/><rect x="1350" y="779" width="12.6" height="23.6" fill="#FF3E74" rx="0" transform="matrix(-.9845 .01767 -.19132 -1.01231 2860.424 1782.187)"/><rect x="1632" y="1169" width="15.6" height="42.6" fill="#FF8B4D" rx="0" transform="matrix(.92328 .486 -.392 .87676 637.977 -535.568)"/><rect x="287" y="1876" width="11.6" height="31.6" fill="#FFC647" rx="0" transform="matrix(.57135 .87253 -.81623 .50375 1602.33 719.271)"/><rect x="909" y="7622" width="17.6" height="17.6" fill="#FFC647" rx="0" transform="matrix(-.57315 .79973 -.81852 -.60264 7555.754 11543.539)"/><rect x="1547" y="3688" width="16.6" height="47.6" fill="#FFC647" rx="0" transform="matrix(1.07423 .6617 -.18468 .81714 1466.425 154.936)"/><rect x="47" y="1944" width="16.6" height="47.6" fill="#FFC647" rx="0" transform="matrix(.30883 .92177 -.95378 .39127 1638.113 1149.788)"/><rect x="1780" y="4924" width="15.6" height="33.6" fill="#B410E1" rx="0" transform="matrix(-.4098 .85717 -.9204 -.51504 7674.62 5953.056)"/><rect x="991" y="7673" width="11.6" height="26.6" fill="#FFC647" rx="0" transform="matrix(.33578 .9761 -.92821 .27989 6970.271 4737.78)"/><rect x="1364" y="5702" width="17.6" height="40.6" fill="#FF8B4D" rx="0" transform="matrix(.771 .41301 -.68956 .92764 3490.076 -394.969)"/><rect x="1575" y="822" width="9.6" height="23.6" fill="#FF8B4D" rx="0" transform="matrix(-.9946 -.03555 -.35433 -1.0181 3668.275 2045.937)"/><rect x="1567" y="5319" width="17.6" height="36.6" fill="#FFC647" rx="0" transform="matrix(-.75472 .45845 -.70003 -.89976 7282.592 9638.64)"/><rect x="78" y="2785" width="11.6" height="33.6" fill="#B410E1" rx="0" transform="matrix(.83122 .42677 -.56061 .91521 1536.172 190.011)"/><rect x="152" y="1469" width="17.6" height="32.6" fill="#FF3E74" rx="0" transform="matrix(-.16827 .87475 -1.0499 -.48488 2259.68 2067.644)"/><rect x="369" y="3187" width="16.6" height="23.6" fill="#B410E1" rx="0" transform="matrix(.90187 .6687 -.42065 .79692 1324.865 505.518)"/><rect x="1718" y="6739" width="9.6" height="10.6" fill="#FFC647" rx="0" transform="matrix(.80277 1.0114 -.7433 .30922 6912.404 3509.593)"/><rect x="1702" y="1077" width="10.6" height="12.6" fill="#FF3E74" rx="0" transform="matrix(.81158 1.03852 -.83437 .16448 1789.582 -313.211)"/><rect x="1895" y="5219" width="14.6" height="42.6" fill="#FF8B4D" rx="0" transform="matrix(.5264 1.04171 -1.00601 -.09114 7952.67 4317.832)"/><rect x="1031" y="3694" width="12.6" height="17.6" fill="#FF3E74" rx="0" transform="matrix(-.87718 .2105 -.62373 -.99034 5292.922 7315.77)"/><rect x="1084" y="4050" width="18.6" height="28.6" fill="#B410E1" rx="0" transform="matrix(.88488 .79355 -.49095 .68982 2275.56 748.307)"/><rect x="1617" y="4171" width="9.6" height="12.6" fill="#FF3E74" rx="0" transform="matrix(.74836 .76792 -.67428 .64436 3524.83 353.63)"/><rect x="1604" y="7549" width="12.6" height="20.6" fill="#FFC647" rx="0" transform="matrix(-1.03724 .31287 -.00392 -.96291 2153.355 14079.378)"/><rect x="316" y="4699" width="15.6" height="23.6" fill="#FF3E74" rx="0" transform="matrix(-.29517 .87036 -.96451 -.54386 5130.109 7065.742)"/><rect x="1838" y="1125" width="10.6" height="30.6" fill="#FF3E74" rx="0" transform="matrix(.83394 .63279 -.47364 .83974 539.51 -384.74)"/><rect x="456" y="7535" width="16.6" height="27.6" fill="#B410E1" rx="0" transform="matrix(.45355 1.0446 -1.02914 -.16545 10088.018 8472.6)"/><rect x="1215" y="6697" width="12.6" height="19.6" fill="#FF8B4D" rx="0" transform="matrix(.992 .03516 -.0328 1.0069 1034.847 -239.15)"/><rect x="1350" y="2452" width="9.6" height="18.6" fill="#FF3E74" rx="0" transform="matrix(.93187 .26205 -.33835 .97797 1082.192 -515.366)"/><rect x="1862" y="3783" width="15.6" height="25.6" fill="#FF3E74" rx="0" transform="matrix(.36023 .96258 -.93558 .27602 5267.199 850.274)"/><rect x="423" y="7880" width="17.6" height="48.6" fill="#FFC647" rx="0" transform="matrix(-.70581 .83982 -.73237 -.54539 5417.73 11829.934)"/><rect x="98" y="3878" width="18.6" height="20.6" fill="#B410E1" rx="0" transform="matrix(-.85862 .42423 -.51588 -.90977 2273.36 7389.625)"/><rect x="750" y="2002" width="13.6" height="13.6" fill="#FF8B4D" rx="0" transform="matrix(.1646 1.00617 -.9678 .15936 2196.184 1074.307)"/><rect x="860" y="8352" width="11.6" height="27.6" fill="#FF3E74" rx="0" transform="matrix(.67146 .88223 -.74582 .50936 6672.784 3509.066)"/><rect x="77" y="6511" width="16.6" height="46.6" fill="#FFC647" rx="0" transform="matrix(.97528 -.05314 .20761 1.01404 763.755 -102.216)"/><rect x="890" y="4085" width="15.6" height="28.6" fill="#FF8B4D" rx="0" transform="matrix(-.39813 .8613 -.88225 -.6031 4332.714 6089.994)"/><rect x="355" y="6513" width="18.6" height="47.6" fill="#B410E1" rx="0" transform="matrix(.73924 .8322 -.703 .56133 6679.149 2532.46)"/><rect x="1525" y="4784" width="15.6" height="18.6" fill="#FF3E74" rx="0" transform="matrix(.60573 .86655 -.80428 .5003 4883.516 1120.463)"/><rect x="1573" y="4486" width="12.6" height="24.6" fill="#FFC647" rx="0" transform="matrix(-.27557 .92846 -.96572 -.37512 7057.955 4636.627)"/><rect x="300" y="2420" width="18.6" height="52.6" fill="#FF8B4D" rx="0" transform="matrix(.9397 .55897 -.34202 .86073 855.337 239.213)"/><rect x="1838" y="6832" width="10.6" height="24.6" fill="#FFC647" rx="0" transform="matrix(-.99125 -.07002 .1055 -1.00137 2088.215 13988.35)"/><rect x="1688" y="4023" width="13.6" height="39.6" fill="#FFC647" rx="0" transform="matrix(.50046 .89976 -.8564 .45845 5048.427 426.263)"/><rect x="1654" y="6476" width="15.6" height="40.6" fill="#FF3E74" rx="0" transform="matrix(.12017 1.03852 -.98194 -.16448 7595.398 6378.987)"/><rect x="266" y="4370" width="18.6" height="42.6" fill="#B410E1" rx="0" transform="matrix(1.02487 .15797 .14052 .9974 77.733 6.64)"/><rect x="1265" y="5736" width="13.6" height="38.6" fill="#FF8B4D" rx="0" transform="matrix(.14072 .99023 -1.03468 -.1746 8299.446 5634.496)"/><rect x="1541" y="4144" width="11.6" height="32.6" fill="#FF3E74" rx="0" transform="matrix(-.03551 1.00413 -.99403 -.05262 5358.975 2988.62)"/><rect x="1302" y="5705" width="16.6" height="33.6" fill="#FF3E74" rx="0" transform="matrix(-.3746 .83378 -.92718 -.60578 7106.308 8422.136)"/><rect x="1863" y="1198" width="12.6" height="33.6" fill="#FF3E74" rx="0" transform="matrix(.64072 .81347 -.76378 .59102 1550.157 -827.329)"/><rect x="1888" y="7965" width="10.6" height="10.6" fill="#B410E1" rx="0" transform="matrix(-.97247 .27669 -.22276 -.96493 4366.466 15302.895)"/><rect x="1375" y="4695" width="14.6" height="16.6" fill="#B410E1" rx="0" transform="matrix(-.9723 .05285 -.36862 -1.00844 5323.648 9567.528)"/><rect x="1774" y="7109" width="17.6" height="32.6" fill="#FF8B4D" rx="0" transform="matrix(.7505 .82115 -.6923 .57498 7385.02 1439.8)"/><rect x="55" y="3544" width="9.6" height="17.6" fill="#FFC647" rx="0" transform="matrix(.33624 1.00367 -.99048 .01752 4380.097 3435.77)"/><rect x="1659" y="5847" width="15.6" height="25.6" fill="#B410E1" rx="0" transform="matrix(.68159 .80456 -.69098 .65152 3580.873 1147.597)"/><rect x="293" y="4296" width="15.6" height="27.6" fill="#FF3E74" rx="0" transform="matrix(.91876 .90267 -.6193 .47996 4030.707 2033.682)"/><rect x="581" y="3953" width="12.6" height="22.6" fill="#FF3E74" rx="0" transform="matrix(-.03861 .95864 -1.03134 -.29309 5477.082 4604.238)"/><rect x="913" y="7852" width="17.6" height="42.6" fill="#FF3E74" rx="0" transform="matrix(-.78011 .69466 -.63172 -.71934 5925.84 12896.542)"/><rect x="38" y="4895" width="11.6" height="12.6" fill="#B410E1" rx="0" transform="matrix(.3893 .79393 -.95541 .62028 3934.066 1820.945)"/><rect x="292" y="5472" width="18.6" height="48.6" fill="#FF8B4D" rx="0" transform="matrix(.24272 .98784 -.97387 .15646 5965.54 4343.982)"/><rect x="809" y="6118" width="15.6" height="23.6" fill="#FFC647" rx="0" transform="matrix(.2695 1 -.94761 .19438 5744.4 4280.257)"/><rect x="506" y="2922" width="10.6" height="23.6" fill="#FFC647" rx="0" transform="matrix(-.1908 .92691 -.98163 -.47229 3488.758 3992.075)"/><rect x="739" y="7793" width="12.6" height="36.6" fill="#FF8B4D" rx="0" transform="matrix(-1.00829 -.07083 -.30143 -1.01295 5395.22 15907.988)"/><rect x="800" y="5874" width="17.6" height="21.6" fill="#FF8B4D" rx="0" transform="matrix(-.40791 .94098 -.91425 -.34249 5791.142 7181.603)"/><rect x="1645" y="3029" width="10.6" height="23.6" fill="#FF3E74" rx="0" transform="matrix(.89743 .48666 -.4358 .87796 1901.522 -576.423)"/><rect x="689" y="8058" width="12.6" height="17.6" fill="#B410E1" rx="0" transform="matrix(.13944 .98872 -1.05942 -.34044 10604.357 10338.21)"/><rect x="1384" y="6356" width="15.6" height="42.6" fill="#FF8B4D" rx="0" transform="matrix(-.82841 .53065 -.55875 -.84921 5995.536 11127.366)"/><rect x="104" y="377" width="16.6" height="43.6" fill="#B410E1" rx="0" transform="matrix(.65258 .66618 -.75038 .76635 351.503 -1.435)"/><rect x="504" y="6173" width="12.6" height="20.6" fill="#FF8B4D" rx="0" transform="matrix(1.1166 .52654 -.04084 .87632 2237.315 604.542)"/><rect x="552" y="6581" width="17.6" height="46.6" fill="#FFC647" rx="0" transform="matrix(.60409 .74326 -.8015 .66923 5054.288 1757.88)"/><rect x="206" y="6774" width="17.6" height="34.6" fill="#B410E1" rx="0" transform="matrix(.99452 0 -.22799 1.0055 718.426 -59.985)"/><rect x="562" y="4388" width="11.6" height="18.6" fill="#FF3E74" rx="0" transform="matrix(-.50016 .83918 -.86683 -.54497 5046.484 6297.386)"/><rect x="1297" y="4320" width="13.6" height="35.6" fill="#B410E1" rx="0" transform="matrix(-.15778 1.01 -1.00113 .07063 5563.344 2508.1)"/><rect x="915" y="826" width="11.6" height="14.6" fill="#FF3E74" rx="0" transform="matrix(.11531 1.04314 -.9667 -.07294 1503.003 215.073)"/><rect x="1410" y="8220" width="18.6" height="53.6" fill="#FF3E74" rx="0" transform="matrix(-.97495 .13926 -.24379 -.99087 5965.551 16171.109)"/><rect x="1374" y="5224" width="18.6" height="18.6" fill="#FF3E74" rx="0" transform="matrix(-.9998 .12204 -.05161 -.9939 2384.941 10338.403)"/><rect x="1022" y="1849" width="9.6" height="16.6" fill="#FFC647" rx="0" transform="matrix(.81164 .69476 -.56897 .74504 1142.353 -40.26)"/><rect x="551" y="492" width="11.6" height="24.6" fill="#B410E1" rx="0" transform="matrix(-.59728 .78143 -.79604 -.63279 1353.46 329.794)"/><rect x="1845" y="8674" width="17.6" height="47.6" fill="#B410E1" rx="0" transform="matrix(.07838 .94235 -1.10112 -.48015 13441.218 11765.438)"/><rect x="152" y="8414" width="9.6" height="27.6" fill="#FF3E74" rx="0" transform="matrix(1.0604 .29398 .06684 .96157 1689.823 294.244)"/><rect x="114" y="8869" width="11.6" height="25.6" fill="#B410E1" rx="0" transform="matrix(.20736 1.03996 -.93978 .1093 6869.321 7823.018)"/><rect x="1843" y="5727" width="13.6" height="30.6" fill="#FF3E74" rx="0" transform="matrix(.9333 .67072 -.4173 .77157 3056.464 464.21)"/><rect x="1071" y="8365" width="13.6" height="23.6" fill="#B410E1" rx="0" transform="matrix(-.40996 .81358 -.9202 -.61308 9527.854 12845.063)"/><rect x="389" y="3328" width="9.6" height="20.6" fill="#FF3E74" rx="0" transform="matrix(-.22366 .96573 -.96282 -.31378 3397.907 4074.94)"/><rect x="1719" y="3756" width="15.6" height="25.6" fill="#B410E1" rx="0" transform="matrix(-.3536 .82954 -.96698 -.55953 6795.644 4505.417)"/><rect x="727" y="2736" width="17.6" height="49.6" fill="#FF3E74" rx="0" transform="matrix(-.9853 -.1246 .00162 -1.01472 1201.083 5810.313)"/><rect x="713" y="2780" width="9.6" height="19.6" fill="#FFC647" rx="0" transform="matrix(.99492 .2598 -.13592 .96962 962.486 -164.523)"/><rect x="1510" y="465" width="14.6" height="35.6" fill="#B410E1" rx="0" transform="matrix(-.08504 .98054 -1.00177 -.20842 2203.212 -1010.443)"/><rect x="1208" y="1133" width="16.6" height="34.6" fill="#FFC647" rx="0" transform="matrix(.936 .69252 -.44027 .74264 776.092 -331.799)"/><rect x="162" y="6776" width="16.6" height="16.6" fill="#FFC647" rx="0" transform="matrix(.60973 .6625 -.808 .76213 5075.464 1477.046)"/><rect x="1534" y="3785" width="13.6" height="37.6" fill="#FF3E74" rx="0" transform="matrix(.9023 .75975 -.5038 .68408 2574.113 358.588)"/><rect x="163" y="4553" width="15.6" height="20.6" fill="#B410E1" rx="0" transform="matrix(-.45608 .9582 -.89544 -.31134 4176.218 5799.395)"/><rect x="1683" y="1103" width="11.6" height="31.6" fill="#FFC647" rx="0" transform="matrix(-.01204 .99572 -1.0026 -.13994 3048.164 -583.712)"/><rect x="968" y="3861" width="16.6" height="36.6" fill="#B410E1" rx="0" transform="matrix(.92634 .34249 -.3747 .94098 1181.604 -54.26)"/><rect x="1650" y="3179" width="15.6" height="27.6" fill="#FF3E74" rx="0" transform="matrix(.10006 1.02615 -.97627 -.01791 4233.137 1931.573)"/><rect x="1384" y="5801" width="13.6" height="30.6" fill="#B410E1" rx="0" transform="matrix(.9974 .3439 -.16743 .94487 2603.336 -303.82)"/><rect x="223" y="5056" width="13.6" height="17.6" fill="#FF3E74" rx="0" transform="matrix(.30126 1.0489 -.93231 .07335 4523.161 4526.945)"/><rect x="779" y="5328" width="9.6" height="9.6" fill="#FF8B4D" rx="0" transform="matrix(.92372 .59356 -.41335 .81697 4062.423 400.685)"/><rect x="1531" y="468" width="12.6" height="26.6" fill="#FFC647" rx="0" transform="matrix(-.27684 .98178 -.96475 -.19084 2373.809 -909.301)"/><rect x="1370" y="4553" width="16.6" height="43.6" fill="#FFC647" rx="0" transform="matrix(.82366 .65606 -.57674 .75471 3362.326 217.908)"/><rect x="1266" y="1998" width="9.6" height="15.6" fill="#B410E1" rx="0" transform="matrix(.95904 .39457 -.27504 .92955 565.61 -181.515)"/><rect x="1106" y="5861" width="17.6" height="32.6" fill="#FFC647" rx="0" transform="matrix(-.19308 .93198 -.99103 -.3956 7471.885 7339.966)"/><rect x="1226" y="128" width="14.6" height="26.6" fill="#FFC647" rx="0" transform="matrix(1.00443 .19268 -.0225 .99127 -12.073 -409.733)"/><rect x="755" y="3633" width="16.6" height="48.6" fill="#FFC647" rx="0" transform="matrix(-.19085 .98558 -.95628 -.30132 3865.638 4197.344)"/><rect x="596" y="7700" width="17.6" height="50.6" fill="#FFC647" rx="0" transform="matrix(1.00311 .3678 -.10571 .95814 1089.441 240.588)"/><rect x="749" y="8976" width="12.6" height="25.6" fill="#FF3E74" rx="0" transform="matrix(-.23107 .89099 -.99427 -.49388 10666.342 12902.072)"/><rect x="1655" y="78" width="9.6" height="9.6" fill="#FF3E74" rx="0" transform="matrix(-.25458 .92502 -.93995 -.51274 2102.929 -838.571)"/><rect x="115" y="7937" width="9.6" height="16.6" fill="#FF8B4D" rx="0" transform="matrix(-.90135 .14634 -.4202 -1.04123 3427.003 16239.575)"/><rect x="1026" y="3931" width="15.6" height="45.6" fill="#FF8B4D" rx="0" transform="matrix(.74926 .88632 -.72987 .47126 4078.662 1264.68)"/><rect x="1590" y="1293" width="12.6" height="15.6" fill="#B410E1" rx="0" transform="matrix(-.73658 .56227 -.68647 -.8336 3742.03 1655.374)"/><rect x="968" y="3601" width="16.6" height="29.6" fill="#FF8B4D" rx="0" transform="matrix(-.4778 .70332 -.92706 -.7283 5459.654 5717.192)"/><rect x="528" y="5769" width="11.6" height="21.6" fill="#B410E1" rx="0" transform="matrix(-.97506 -.05535 -.53897 -1.05617 5656.323 12097.607)"/><rect x="782" y="5498" width="10.6" height="10.6" fill="#FFC647" rx="0" transform="matrix(-.37294 .74785 -.96422 -.74785 6892.517 9301.253)"/><rect x="600" y="897" width="16.6" height="46.6" fill="#FF3E74" rx="0" transform="matrix(.84972 .63279 -.531 .78143 597.276 -119.836)"/><rect x="772" y="726" width="12.6" height="27.6" fill="#B410E1" rx="0" transform="matrix(.92377 .34333 -.37464 .94328 237.29 -157.159)"/><rect x="342" y="8667" width="9.6" height="21.6" fill="#FF8B4D" rx="0" transform="matrix(.8968 .24325 -.51405 .97564 2972.926 90.577)"/><rect x="171" y="7523" width="18.6" height="30.6" fill="#B410E1" rx="0" transform="matrix(.34034 .91521 -.93394 .42677 7552.984 4130.815)"/><rect x="1854" y="4374" width="12.6" height="22.6" fill="#FF3E74" rx="0" transform="matrix(.81326 .90998 -.66651 .48384 4038.277 1034.493)"/><rect x="240" y="578" width="16.6" height="23.6" fill="#FF3E74" rx="0" transform="matrix(1.00467 .2758 -.12205 .96185 183.788 -54.651)"/><rect x="1128" y="488" width="11.6" height="33.6" fill="#FF8B4D" rx="0" transform="matrix(-.81776 .34459 -.65523 -.94675 2528.627 731.238)"/><rect x="109" y="5404" width="16.6" height="29.6" fill="#FF8B4D" rx="0" transform="matrix(-.95053 .1397 -.39462 -.99405 4229.446 10778.712)"/><rect x="522" y="7749" width="14.6" height="33.6" fill="#FFC647" rx="0" transform="matrix(.98102 .19093 -.19073 .98223 1219.419 55.46)"/><rect x="747" y="427" width="9.6" height="21.6" fill="#B410E1" rx="0" transform="matrix(.53519 .92691 -.80616 .47229 598.895 -250.245)"/><rect x="1146" y="8559" width="9.6" height="22.6" fill="#B410E1" rx="0" transform="matrix(.62932 .88811 -.77715 .49229 7086.952 3532.117)"/><rect x="1337" y="3403" width="15.6" height="27.6" fill="#FF8B4D" rx="0" transform="matrix(-.92145 .08982 -.60067 -1.0267 5641.705 7139.302)"/><rect x="276" y="5622" width="11.6" height="22.6" fill="#FF8B4D" rx="0" transform="matrix(-.97041 .1746 -.22374 -.99023 1518.884 11191.99)"/><rect x="1570" y="7963" width="10.6" height="23.6" fill="#B410E1" rx="0" transform="matrix(-.85044 .37552 -.55806 -.92945 9472.748 14685.247)"/><rect x="319" y="1762" width="11.6" height="23.6" fill="#B410E1" rx="0" transform="matrix(.4799 1.04014 -.96978 -.01816 2285.96 1561.302)"/><rect x="252" y="2487" width="11.6" height="25.6" fill="#FF8B4D" rx="0" transform="matrix(-.6518 .41919 -.92158 -.94151 3562.714 4809.603)"/><rect x="1449" y="212" width="14.6" height="14.6" fill="#FFC647" rx="0" transform="matrix(.00613 .86692 -1.15765 -.58474 1930.06 -469.723)"/><rect x="196" y="4260" width="9.6" height="24.6" fill="#FFC647" rx="0" transform="matrix(1.04197 .24325 .0682 .97564 612.768 76.331)"/><rect x="382" y="508" width="16.6" height="24.6" fill="#FF8B4D" rx="0" transform="matrix(-.57154 .84187 -.81666 -.54672 1063.76 442.028)"/><rect x="1677" y="5804" width="15.6" height="20.6" fill="#FF3E74" rx="0" transform="matrix(-.8988 .29602 -.43837 -.96823 5747.91 11211.97)"/><rect x="955" y="4242" width="18.6" height="26.6" fill="#FF3E74" rx="0" transform="matrix(.66926 .76651 -.74304 .64318 3775.974 745.558)"/><rect x="1347" y="6202" width="17.6" height="40.6" fill="#FFC647" rx="0" transform="matrix(-.52254 .95073 -.8719 -.32736 6850.48 6827.746)"/><rect x="1703" y="3069" width="9.6" height="18.6" fill="#FF3E74" rx="0" transform="matrix(.82921 .70883 -.58156 .70883 2417.976 -194.827)"/><rect x="1705" y="5167" width="14.6" height="30.6" fill="#B410E1" rx="0" transform="matrix(-.0215 .9601 -1.03415 -.3306 7879.147 5553.457)"/><rect x="558" y="4105" width="9.6" height="10.6" fill="#FFC647" rx="0" transform="matrix(.38104 .9757 -.93693 .22526 5066.804 2605.792)"/><rect x="117" y="6810" width="9.6" height="9.6" fill="#FF3E74" rx="0" transform="matrix(-.27637 .76936 -1.05094 -.69273 8898.242 11474.578)"/><rect x="1436" y="8767" width="14.6" height="26.6" fill="#FF8B4D" rx="0" transform="matrix(-.8662 .25945 -.6216 -.96828 10866.6 17008.588)"/><rect x="1757" y="7524" width="15.6" height="22.6" fill="#FFC647" rx="0" transform="matrix(-.32237 .81648 -.98185 -.61526 10703.542 11105.668)"/><rect x="158" y="4249" width="13.6" height="22.6" fill="#FF8B4D" rx="0" transform="matrix(.87973 .67282 -.50925 .74724 2638.963 983.282)"/><rect x="1464" y="3124" width="18.6" height="50.6" fill="#FF8B4D" rx="0" transform="matrix(-.348 .83018 -.96983 -.55996 5979.54 3612.473)"/><rect x="1213" y="5828" width="17.6" height="47.6" fill="#FF3E74" rx="0" transform="matrix(.8133 .8656 -.6666 .5201 5409.22 1922.414)"/><rect x="1453" y="5541" width="16.6" height="26.6" fill="#FF8B4D" rx="0" transform="matrix(-.54592 .79876 -.84056 -.6019 7220.216 7755.754)"/><rect x="71" y="3330" width="14.6" height="32.6" fill="#B410E1" rx="0" transform="matrix(1.04163 .71592 -.35517 .71592 2276.548 906.959)"/><rect x="1428" y="5476" width="9.6" height="15.6" fill="#FF3E74" rx="0" transform="matrix(-.65272 .50491 -.85 -.87454 8552.543 9757.509)"/></svg>