<svg xmlns="http://www.w3.org/2000/svg" version="1.1" xmlns:xlink="http://www.w3.org/1999/xlink" xmlns:svgjs="http://svgjs.com/svgjs" width="1920" height="1080" preserveAspectRatio="none" viewBox="0 0 1920 1080"><g mask="url(&quot;#SvgjsMask1020&quot;)" fill="none"><path d="M822.11 1073.58a13.57 13.57 0 1 0-26.07-7.54z" fill="rgba(255, 81, 129, 1)"></path><path d="M50.7 205.45a84.97 84.97 0 1 0-37.72-165.7z" fill="rgba(255, 81, 129, 1)"></path><path d="M856.55 269.25L890.03 269.25L890.03 302.73L856.55 302.73z" fill="rgba(255, 81, 129, 1)"></path><path d="M1081.62 820.95L1185.54 820.95L1185.54 924.87L1081.62 924.87z" stroke="rgba(255, 81, 129, 1)"></path><path d="M1580.16 889.1L1621.96 889.1L1621.96 930.9L1580.16 930.9z" stroke="rgba(255, 81, 129, 1)"></path><path d="M311.71 373.03a82.32 82.32 0 1 0-145.13-77.75z" fill="rgba(255, 81, 129, 1)"></path><path d="M-71.19 851.04 a76.95 76.95 0 1 0 153.9 0 a76.95 76.95 0 1 0 -153.9 0z" stroke="rgba(255, 81, 129, 1)"></path><path d="M1371.86 567.81L1436.16 567.81L1436.16 605.32L1371.86 605.32z" fill="rgba(255, 81, 129, 1)"></path><path d="M1168.61 655.25 a1.91 1.91 0 1 0 3.82 0 a1.91 1.91 0 1 0 -3.82 0z" stroke="rgba(255, 81, 129, 1)"></path><path d="M1181.14 489.85L1223.39 489.85L1223.39 554.71L1181.14 554.71z" stroke="rgba(255, 81, 129, 1)"></path><path d="M53.14 712.38L75.26 712.38L75.26 734.5L53.14 734.5z" stroke="rgba(255, 81, 129, 1)"></path><path d="M1875.47 849.42L1973.48 849.42L1973.48 924.7L1875.47 924.7z" fill="rgba(255, 81, 129, 1)"></path><path d="M900.36 1005.68L953.5 1005.68L953.5 1058.82L900.36 1058.82z" stroke="rgba(255, 81, 129, 1)"></path><path d="M770.86 121 a16.77 16.77 0 1 0 33.54 0 a16.77 16.77 0 1 0 -33.54 0z" fill="rgba(255, 81, 129, 1)"></path><path d="M822.73 944.16a43.99 43.99 0 1 0-76.65 43.2z" stroke="rgba(255, 81, 129, 1)"></path><path d="M1558.81 59.91L1641.93 59.91L1641.93 78.37L1558.81 78.37z" fill="rgba(255, 81, 129, 1)"></path><path d="M1272.43 948.43a53.65 53.65 0 1 0-72.67 78.95z" fill="rgba(255, 81, 129, 1)"></path><path d="M453.87 507.67L517.37 507.67L517.37 571.17L453.87 571.17z" fill="rgba(255, 81, 129, 1)"></path><path d="M1677.55 45.99L1678.71 45.99L1678.71 139.73L1677.55 139.73z" stroke="rgba(255, 81, 129, 1)"></path><path d="M816.56 992.59 a81.62 81.62 0 1 0 163.24 0 a81.62 81.62 0 1 0 -163.24 0z" stroke="rgba(255, 81, 129, 1)"></path><path d="M1193.44 611.25L1259.73 611.25L1259.73 677.54L1193.44 677.54z" fill="rgba(255, 81, 129, 1)"></path><path d="M932.67 456.33a95.25 95.25 0 1 0 182.44 54.8z" stroke="rgba(255, 81, 129, 1)"></path><path d="M56.75 534.07L89.34 534.07L89.34 591.6L56.75 591.6z" fill="rgba(255, 81, 129, 1)"></path></g><defs><mask id="SvgjsMask1020"><rect width="1920" height="1080" fill="#ffffff"></rect></mask></defs></svg>