<svg width="1920" height="9000" xmlns="http://www.w3.org/2000/svg"><path fill="none" d="M0 0h1920v9000H0z"/><rect x="1674" y="5370" width="14.6" height="43.6" fill="#FF3E74" rx="0" transform="matrix(-.30917 .96258 -.95022 -.27602 6845.077 5349.747)"/><rect x="1131" y="4735" width="10.6" height="18.6" fill="#FFC647" rx="0" transform="matrix(.32573 .90755 -.94998 .4232 4512.288 1764.82)"/><rect x="282" y="4101" width="9.6" height="26.6" fill="#FFC647" rx="0" transform="matrix(.51005 .93773 -.8499 .39804 3418.711 2263.432)"/><rect x="658" y="8521" width="13.6" height="30.6" fill="#B410E1" rx="0" transform="matrix(.26114 1.01955 -.93478 .17977 7090.538 6502.034)"/><rect x="567" y="3813" width="9.6" height="16.6" fill="#FFC647" rx="0" transform="matrix(-.97041 -.0367 -.53764 -1.05082 4180.231 8043.577)"/><rect x="220" y="8896" width="15.6" height="40.6" fill="#B410E1" rx="0" transform="matrix(-.90617 .42268 -.42255 -.90645 4046.096 16906.132)"/><rect x="1390" y="5213" width="13.6" height="34.6" fill="#FFC647" rx="0" transform="matrix(.03705 1.01156 -.98533 .0885 7110.572 3108.173)"/><rect x="1230" y="4583" width="13.6" height="23.6" fill="#FFC647" rx="0" transform="matrix(.22454 .99572 -.97274 .13994 5346.154 2850.288)"/><rect x="1401" y="3954" width="13.6" height="36.6" fill="#FF3E74" rx="0" transform="matrix(-.36306 .75715 -.98218 -.70606 6431.705 6088.268)"/><rect x="683" y="5464" width="10.6" height="10.6" fill="#FF8B4D" rx="0" transform="matrix(.73135 .63086 -.682 .77904 3914.963 726.127)"/><rect x="354" y="2077" width="13.6" height="25.6" fill="#FFC647" rx="0" transform="matrix(.2991 1.02172 -.98919 -.03568 2586.103 1872.417)"/><rect x="1529" y="4285" width="9.6" height="25.6" fill="#FFC647" rx="0" transform="matrix(-.89919 .4068 -.43862 -.91368 5021.887 7573.913)"/><rect x="495" y="5040" width="9.6" height="18.6" fill="#B410E1" rx="0" transform="matrix(-1.0154 -.10583 -.21182 -1.00692 2889.085 10265.59)"/><rect x="508" y="1807" width="11.6" height="21.6" fill="#FFC647" rx="0" transform="matrix(-.03625 1.00861 -.98829 -.08824 2129.328 1541.36)"/><rect x="1612" y="2614" width="11.6" height="15.6" fill="#FF8B4D" rx="0" transform="matrix(-.95263 .1392 -.40587 -.99042 4966.764 4965.053)"/><rect x="1412" y="8639" width="12.6" height="21.6" fill="#FF8B4D" rx="0" transform="matrix(.98221 .0698 -.28053 .99817 935.32 -132.713)"/><rect x="1379" y="5512" width="13.6" height="30.6" fill="#FFC647" rx="0" transform="matrix(-.57788 .88295 -.8253 -.46947 6069.666 6898.621)"/><rect x="527" y="7025" width="12.6" height="18.6" fill="#FF3E74" rx="0" transform="matrix(.40803 .94149 -.8973 .38039 8102.732 3762.424)"/><rect x="785" y="772" width="17.6" height="18.6" fill="#B410E1" rx="0" transform="matrix(.99893 .05237 -.0349 .99924 13.988 -13.254)"/><rect x="667" y="8207" width="9.6" height="27.6" fill="#FF3E74" rx="0" transform="matrix(.37694 1 -.93354 .17633 8384.19 6217.908)"/><rect x="448" y="2216" width="10.6" height="16.6" fill="#FF8B4D" rx="0" transform="matrix(-.99497 .0175 -.15724 -1.00229 1411.83 4477.46)"/><rect x="1320" y="3697" width="17.6" height="24.6" fill="#FF3E74" rx="0" transform="matrix(-.20778 .9824 -.96612 -.24494 4707.239 3522.907)"/><rect x="1430" y="1203" width="18.6" height="50.6" fill="#FF8B4D" rx="0" transform="matrix(-.01642 .9855 -1.01821 .20947 2603.082 -624.14)"/><rect x="364" y="5114" width="10.6" height="13.6" fill="#FF8B4D" rx="0" transform="matrix(-.56805 .77786 -.80892 -.6527 4267.697 8241.018)"/><rect x="1612" y="3879" width="13.6" height="39.6" fill="#FFC647" rx="0" transform="matrix(-1.022 .22581 -.00171 -.9781 2751.855 7205.017)"/><rect x="250" y="5055" width="12.6" height="35.6" fill="#FFC647" rx="0" transform="matrix(-.25801 1.00986 -.96311 -.10614 5295.872 5307.211)"/><rect x="1220" y="888" width="17.6" height="25.6" fill="#B410E1" rx="0" transform="matrix(.3971 .83918 -.93376 .54497 1461.406 -664.207)"/><rect x="870" y="674" width="12.6" height="18.6" fill="#FF3E74" rx="0" transform="matrix(.68328 1.03887 -.92677 .05445 1232.604 -12.992)"/><rect x="1356" y="323" width="13.6" height="37.6" fill="#FFC647" rx="0" transform="matrix(.07749 .92764 -1.1125 -.41301 1837.885 -540.92)"/><rect x="1484" y="7541" width="15.6" height="32.6" fill="#FF3E74" rx="0" transform="matrix(-.29726 .99467 -.97411 -.10454 7968.942 6837.48)"/><rect x="1074" y="3717" width="17.6" height="33.6" fill="#FF3E74" rx="0" transform="matrix(-.25944 .93415 -.9709 -.35859 5508.314 4023.38)"/><rect x="710" y="4580" width="18.6" height="40.6" fill="#FFC647" rx="0" transform="matrix(.37295 .92955 -.91748 .39457 5224.145 2015.438)"/><rect x="1635" y="5909" width="17.6" height="46.6" fill="#FFC647" rx="0" transform="matrix(.47919 .87253 -.86943 .50375 5151.754 1711.445)"/><rect x="154" y="7653" width="11.6" height="32.6" fill="#B410E1" rx="0" transform="matrix(.9123 .71916 -.44578 .74472 3837.014 1885.75)"/><rect x="993" y="2657" width="17.6" height="37.6" fill="#B410E1" rx="0" transform="matrix(-.69093 .45384 -.78683 -.9305 4213.161 4979.411)"/><rect x="284" y="1895" width="16.6" height="18.6" fill="#FF3E74" rx="0" transform="matrix(-.28377 .9761 -.94312 -.27989 2464.687 2100.442)"/><rect x="879" y="8925" width="15.6" height="45.6" fill="#FF8B4D" rx="0" transform="matrix(-.8445 .44268 -.5275 -.90763 6038.828 16801.129)"/><rect x="1802" y="4203" width="12.6" height="21.6" fill="#FF3E74" rx="0" transform="matrix(-.0841 .98538 -.9985 -.19154 6956.154 3080.84)"/><rect x="626" y="430" width="14.6" height="35.6" fill="#B410E1" rx="0" transform="matrix(1.04311 .17535 .21305 .99449 11.132 -19.578)"/><rect x="786" y="4879" width="9.6" height="11.6" fill="#FF3E74" rx="0" transform="matrix(-.99955 -.0175 -.10486 -1.00229 2352.38 9849.916)"/><rect x="1039" y="1178" width="16.6" height="32.6" fill="#FF3E74" rx="0" transform="matrix(.29293 .97125 -.95111 .26024 2028.802 -243.772)"/><rect x="1281" y="289" width="14.6" height="20.6" fill="#FF8B4D" rx="0" transform="matrix(.24598 1.01496 -.9419 .17896 1155.028 -740.623)"/><rect x="1377" y="3842" width="16.6" height="34.6" fill="#FF8B4D" rx="0" transform="matrix(.34177 .93415 -.9393 .35859 4332.078 1229.706)"/><rect x="1567" y="4511" width="15.6" height="22.6" fill="#B410E1" rx="0" transform="matrix(-.62443 .49388 -.89827 -.89099 8004.938 8079.965)"/><rect x="688" y="2236" width="16.6" height="22.6" fill="#FF8B4D" rx="0" transform="matrix(1.07051 .52468 -.1243 .87321 824.314 54.948)"/><rect x="1656" y="8707" width="12.6" height="19.6" fill="#FFC647" rx="0" transform="matrix(.3759 .95645 -.9306 .29242 9760.942 4606.974)"/><rect x="630" y="929" width="10.6" height="26.6" fill="#FF8B4D" rx="0" transform="matrix(-.44141 .94566 -.90547 -.32562 1671.079 637.26)"/><rect x="1725" y="1354" width="17.6" height="35.6" fill="#B410E1" rx="0" transform="matrix(.9755 .15703 -.2091 .99146 115.215 -108.86)"/><rect x="834" y="5865" width="9.6" height="18.6" fill="#B410E1" rx="0" transform="matrix(.97696 .59356 -.34008 .81697 2966.108 695.193)"/><rect x="75" y="3702" width="9.6" height="12.6" fill="#FFC647" rx="0" transform="matrix(.99626 -.05314 -.19278 1.01404 456.85 -61.876)"/><rect x="1484" y="8904" width="11.6" height="27.6" fill="#FF8B4D" rx="0" transform="matrix(-1.01188 -.03495 -.36204 -1.00076 9323.452 17972.54)"/><rect x="254" y="4836" width="18.6" height="39.6" fill="#B410E1" rx="0" transform="matrix(-.20834 .99042 -.9804 -.1392 4824.51 5266.326)"/><rect x="1890" y="3590" width="17.6" height="39.6" fill="#FFC647" rx="0" transform="matrix(1.0047 .0524 .08985 1 349.042 -199.024)"/><rect x="637" y="4794" width="12.6" height="12.6" fill="#FFC647" rx="0" transform="matrix(.52455 .97452 -.90505 .22499 6206.409 3082.166)"/><rect x="145" y="2122" width="13.6" height="16.6" fill="#FF3E74" rx="0" transform="matrix(.70773 .57393 -.73164 .81965 1266.401 291.774)"/><rect x="1238" y="6301" width="15.6" height="22.6" fill="#B410E1" rx="0" transform="matrix(-1.02182 -.07044 -.41662 -1.00737 7382.405 12933.95)"/><rect x="22" y="1379" width="10.6" height="18.6" fill="#FFC647" rx="0" transform="matrix(-.51373 .78683 -.8549 -.63716 1203.88 2255.72)"/><rect x="1632" y="2477" width="12.6" height="19.6" fill="#FF8B4D" rx="0" transform="matrix(.8033 .4258 -.6259 .91311 1638.497 -682.665)"/><rect x="1484" y="2996" width="16.6" height="17.6" fill="#B410E1" rx="0" transform="matrix(.1921 .99635 -.98686 .08717 4536.705 1229.979)"/><rect x="461" y="3470" width="14.6" height="21.6" fill="#FFC647" rx="0" transform="matrix(-.80976 .3678 -.6094 -.95814 3156.822 6751.762)"/><rect x="890" y="8146" width="11.6" height="21.6" fill="#FFC647" rx="0" transform="matrix(-.01688 1.00183 -.99758 -.03498 9756.15 7482.082)"/><rect x="1760" y="3390" width="17.6" height="43.6" fill="#FF3E74" rx="0" transform="matrix(-.87095 .39457 -.48258 -.92955 4827.963 6133.914)"/><rect x="944" y="8136" width="16.6" height="40.6" fill="#FF3E74" rx="0" transform="matrix(-.37493 .7522 -.96735 -.7264 10087.239 13655.844)"/><rect x="155" y="6608" width="9.6" height="10.6" fill="#FFC647" rx="0" transform="matrix(.08573 1.01985 -.98653 -.07131 6321.956 6955.921)"/><rect x="1830" y="5754" width="14.6" height="40.6" fill="#FF3E74" rx="0" transform="matrix(-.05545 1.01472 -.97868 -.1246 6723.993 5019.916)"/><rect x="252" y="1053" width="13.6" height="35.6" fill="#FFC647" rx="0" transform="matrix(1.13495 .53857 .03211 .89633 282.253 50.748)"/><rect x="1061" y="3676" width="18.6" height="39.6" fill="#FFC647" rx="0" transform="matrix(.10453 1.02648 -.99452 -.19953 4633.977 3661.796)"/><rect x="571" y="1140" width="12.6" height="30.6" fill="#FF8B4D" rx="0" transform="matrix(-.55525 .69561 -.8626 -.72033 2217.018 1555.662)"/><rect x="1085" y="3115" width="17.6" height="38.6" fill="#FF3E74" rx="0" transform="matrix(-.21144 1.00122 -1.00247 .01748 3924.57 1927.066)"/><rect x="719" y="7229" width="11.6" height="11.6" fill="#FF8B4D" rx="0" transform="matrix(-1.01998 -.08879 -.39553 -1.01484 6440.601 14782.205)"/><rect x="1657" y="1900" width="12.6" height="31.6" fill="#FF3E74" rx="0" transform="matrix(-.35719 .90554 -.9301 -.44166 3965.259 1459.975)"/><rect x="707" y="2221" width="16.6" height="43.6" fill="#B410E1" rx="0" transform="matrix(.87687 .65967 -.50718 .75887 1428.388 144.13)"/><rect x="279" y="6127" width="15.6" height="25.6" fill="#FFC647" rx="0" transform="matrix(-.45257 .81358 -.8881 -.61308 5761.166 9726.395)"/><rect x="1351" y="3022" width="9.6" height="27.6" fill="#FF8B4D" rx="0" transform="matrix(-.626 .69252 -.7727 -.74264 4435.937 4590.44)"/><rect x="570" y="6948" width="13.6" height="32.6" fill="#FF8B4D" rx="0" transform="matrix(-1.07106 -.21741 -.43935 -1.02284 6713.058 14389.42)"/><rect x="1635" y="7490" width="12.6" height="19.6" fill="#FF8B4D" rx="0" transform="matrix(.52853 .87796 -.84603 .48666 6851.976 2552.534)"/><rect x="1514" y="3824" width="16.6" height="39.6" fill="#FFC647" rx="0" transform="matrix(-.89273 .11055 -.55177 -1.05183 5538.507 8242.69)"/><rect x="374" y="3397" width="15.6" height="15.6" fill="#FF3E74" rx="0" transform="matrix(.88438 .73538 -.53514 .68575 2473.63 829.301)"/><rect x="1831" y="5153" width="16.6" height="29.6" fill="#B410E1" rx="0" transform="matrix(.59775 .96656 -.8632 .27716 6438.395 2151.046)"/><rect x="315" y="5453" width="10.6" height="29.6" fill="#FF3E74" rx="0" transform="matrix(.95586 .85437 -.54971 .55483 4710.552 2222.69)"/><rect x="1495" y="3840" width="17.6" height="40.6" fill="#B410E1" rx="0" transform="matrix(.45343 .90099 -.88874 .43944 4581.254 703.86)"/><rect x="299" y="5665" width="17.6" height="30.6" fill="#FF3E74" rx="0" transform="matrix(-.15675 .99893 -.9901 -.06985 5782.355 5753.479)"/><rect x="1699" y="8233" width="16.6" height="34.6" fill="#B410E1" rx="0" transform="matrix(.95203 .67282 -.42895 .74724 5412.705 1116.105)"/><rect x="1294" y="8295" width="13.6" height="36.6" fill="#FF3E74" rx="0" transform="matrix(.73917 .77904 -.68506 .63086 7782.106 1964.455)"/><rect x="129" y="3010" width="13.6" height="14.6" fill="#FF8B4D" rx="0" transform="matrix(.9992 .15682 -.06813 .9901 682.08 -.921)"/><rect x="697" y="1151" width="9.6" height="24.6" fill="#FF3E74" rx="0" transform="matrix(.90414 .37604 -.42149 .93073 596.073 -244.716)"/><rect x="1859" y="6822" width="16.6" height="47.6" fill="#B410E1" rx="0" transform="matrix(-.12185 .99386 -.98249 -.19319 8195.952 6608.233)"/><rect x="402" y="2855" width="14.6" height="16.6" fill="#FFC647" rx="0" transform="matrix(.18247 1.0457 -.9563 0 2758.707 2560.434)"/><rect x="1727" y="6198" width="14.6" height="14.6" fill="#B410E1" rx="0" transform="matrix(-.36448 .98496 -.951 -.17367 7178.863 5544.519)"/><rect x="835" y="4182" width="14.6" height="40.6" fill="#FF8B4D" rx="0" transform="matrix(-.24065 .78139 -1.0631 -.70357 6463.832 6774.41)"/><rect x="1282" y="6374" width="13.6" height="27.6" fill="#FFC647" rx="0" transform="matrix(.7939 .56227 -.6015 .8336 3074.72 473.704)"/><rect x="423" y="2070" width="12.6" height="32.6" fill="#FFC647" rx="0" transform="matrix(-.745 .33705 -.80325 -.97887 2973.81 4098.856)"/><rect x="1307" y="6687" width="15.6" height="31.6" fill="#FFC647" rx="0" transform="matrix(.48621 .92275 -.87733 .39169 6793.362 2956.117)"/><rect x="779" y="5185" width="11.6" height="16.6" fill="#FFC647" rx="0" transform="matrix(-.4805 .76651 -.90142 -.64318 6763.8 7959.371)"/><rect x="92" y="7097" width="12.6" height="22.6" fill="#FF3E74" rx="0" transform="matrix(.20977 .94199 -.98524 .34286 6584.456 4571.71)"/><rect x="1650" y="1941" width="11.6" height="28.6" fill="#FF3E74" rx="0" transform="matrix(.46588 .88781 -.87865 .47206 2378.624 -263.72)"/><rect x="716" y="7327" width="17.6" height="50.6" fill="#FF3E74" rx="0" transform="matrix(-1.02057 -.1985 -.21254 -1.02119 3955.445 15212.072)"/><rect x="978" y="8578" width="16.6" height="38.6" fill="#B410E1" rx="0" transform="matrix(.51455 1.02568 -.957 .03582 10906.698 7505.444)"/><rect x="681" y="2666" width="17.6" height="30.6" fill="#FF8B4D" rx="0" transform="matrix(-.7068 .53857 -.68047 -.89633 2799.64 4924.024)"/><rect x="1192" y="5933" width="12.6" height="27.6" fill="#B410E1" rx="0" transform="matrix(.97564 .34202 -.24325 .9397 2100.81 -51.207)"/><rect x="200" y="5403" width="11.6" height="18.6" fill="#FF3E74" rx="0" transform="matrix(.89656 .27907 -.4566 .97324 2304.706 54.783)"/><rect x="148" y="3184" width="9.6" height="22.6" fill="#B410E1" rx="0" transform="matrix(.76848 .85012 -.6961 .53121 2941.09 1378.7)"/><rect x="1864" y="545" width="13.6" height="34.6" fill="#FF8B4D" rx="0" transform="matrix(.85358 .89947 -.6579 .47826 874.718 -1025.713)"/><rect x="1215" y="4696" width="9.6" height="15.6" fill="#FFC647" rx="0" transform="matrix(-.73225 .81928 -.70786 -.57366 4616.994 6381.554)"/><rect x="1774" y="7789" width="12.6" height="24.6" fill="#FFC647" rx="0" transform="matrix(.6801 .84465 -.67142 .6365 4323.822 1945.105)"/><rect x="938" y="8987" width="17.6" height="37.6" fill="#FFC647" rx="0" transform="matrix(.98488 -.01772 .00437 1.01527 1374.906 -287.704)"/><rect x="494" y="4217" width="14.6" height="35.6" fill="#FF3E74" rx="0" transform="matrix(-.88849 .65967 -.49382 -.75887 2598.354 7065.066)"/><rect x="268" y="1408" width="13.6" height="21.6" fill="#FFC647" rx="0" transform="matrix(.01745 1.00452 -.99985 -.25046 1688.588 1571.736)"/><rect x="1626" y="8074" width="15.6" height="27.6" fill="#FF3E74" rx="0" transform="matrix(-.88537 .30902 -.51117 -.95106 8933.68 15274.883)"/><rect x="216" y="2584" width="15.6" height="43.6" fill="#FFC647" rx="0" transform="matrix(.2794 1.02234 -.97815 0 2895.669 2424.57)"/><rect x="334" y="2082" width="17.6" height="38.6" fill="#B410E1" rx="0" transform="matrix(.77331 .79692 -.60595 .6687 1197.186 521.292)"/><rect x="596" y="3495" width="17.6" height="26.6" fill="#FF3E74" rx="0" transform="matrix(.92255 .2105 -.41027 .99034 1307.35 -189.214)"/><rect x="422" y="2764" width="10.6" height="11.6" fill="#B410E1" rx="0" transform="matrix(.26114 1 -.97715 .08749 3267.833 2137.558)"/><rect x="31" y="7861" width="18.6" height="21.6" fill="#B410E1" rx="0" transform="matrix(-.8627 .31715 -.498 -.97607 3857.663 15551.776)"/><rect x="76" y="4167" width="11.6" height="18.6" fill="#FF8B4D" rx="0" transform="matrix(.95198 .46363 -.20503 .95058 492.37 196.62)"/><rect x="1063" y="2958" width="14.6" height="39.6" fill="#B410E1" rx="0" transform="matrix(-.97255 .20906 -.2079 -.98354 3031.466 5570.325)"/><rect x="1846" y="3691" width="16.6" height="35.6" fill="#FF3E74" rx="0" transform="matrix(.96968 .26136 -.2072 .97542 477.435 -132.872)"/><rect x="982" y="7641" width="9.6" height="11.6" fill="#FF3E74" rx="0" transform="matrix(-.84805 .31848 -.52992 -.98017 5875.84 15073.741)"/><rect x="1819" y="5788" width="9.6" height="24.6" fill="#FF3E74" rx="0" transform="matrix(.29922 .9939 -.96939 .12204 8217.875 3184.18)"/><rect x="1746" y="1263" width="15.6" height="34.6" fill="#FF8B4D" rx="0" transform="matrix(.7587 .60932 -.63435 .8086 1340.724 -1101.333)"/><rect x="717" y="4610" width="12.6" height="12.6" fill="#FF3E74" rx="0" transform="matrix(-.0689 .98354 -1.03138 .20906 4733.738 2863.817)"/><rect x="708" y="3950" width="17.6" height="44.6" fill="#FF8B4D" rx="0" transform="matrix(.16991 1.01624 -.97214 .07106 4096.93 3100.915)"/><rect x="685" y="1267" width="13.6" height="32.6" fill="#FF8B4D" rx="0" transform="matrix(.20887 .96455 -1.12114 -.3897 2467.49 1314.501)"/><rect x="376" y="4426" width="12.6" height="28.6" fill="#B410E1" rx="0" transform="matrix(.81757 .70808 -.5947 .70808 3179.23 1045.563)"/><rect x="352" y="8381" width="14.6" height="26.6" fill="#B410E1" rx="0" transform="matrix(.91637 .60411 -.43925 .80169 6115.264 1416.213)"/><rect x="759" y="4236" width="14.6" height="30.6" fill="#B410E1" rx="0" transform="matrix(1.09775 .68673 -.237 .7627 2371.447 659.537)"/><rect x="1754" y="7324" width="14.6" height="36.6" fill="#FF8B4D" rx="0" transform="matrix(-.37512 .9063 -.92846 -.42262 9623.798 8849.01)"/><rect x="684" y="3357" width="17.6" height="17.6" fill="#FF8B4D" rx="0" transform="matrix(-.78548 .48384 -.58952 -.90998 2911.595 6266.13)"/><rect x="384" y="1844" width="15.6" height="25.6" fill="#B410E1" rx="0" transform="matrix(-.96645 -.07335 -.18695 -1.0489 1013.605 3960.44)"/><rect x="698" y="2719" width="12.6" height="16.6" fill="#B410E1" rx="0" transform="matrix(.21737 1.00324 -.95844 .1769 2762.626 1675.165)"/><rect x="1095" y="7618" width="10.6" height="21.6" fill="#B410E1" rx="0" transform="matrix(1.08448 .35409 .1554 .97284 697.108 112.412)"/><rect x="414" y="1571" width="14.6" height="29.6" fill="#FF3E74" rx="0" transform="matrix(-.977 -.15936 .1065 -1.00617 429.626 3330.423)"/><rect x="989" y="2465" width="15.6" height="15.6" fill="#FF8B4D" rx="0" transform="matrix(-.71425 .41325 -.7372 -.97354 3728.645 4811.485)"/><rect x="375" y="5546" width="17.6" height="20.6" fill="#FF3E74" rx="0" transform="matrix(.22345 .9781 -.97081 .22581 5203.116 3959.816)"/><rect x="582" y="8199" width="10.6" height="13.6" fill="#FFC647" rx="0" transform="matrix(.26795 1 -1.08192 -.30573 11554.804 10306.82)"/><rect x="34" y="2502" width="12.6" height="20.6" fill="#FFC647" rx="0" transform="matrix(1.07138 .50122 -.13945 .86814 1213.48 313.89)"/><rect x="1747" y="3487" width="15.6" height="18.6" fill="#FF3E74" rx="0" transform="matrix(-.62866 .74496 -.7763 -.67076 5508.997 4656.947)"/><rect x="172" y="5777" width="12.6" height="26.6" fill="#FF8B4D" rx="0" transform="matrix(-.89564 .12744 -.5526 -1.0379 4359.167 11831.827)"/><rect x="1475" y="7475" width="17.6" height="22.6" fill="#FF3E74" rx="0" transform="matrix(.70645 1.02648 -.83688 .19953 8533.803 4923.131)"/><rect x="1428" y="7706" width="16.6" height="44.6" fill="#FFC647" rx="0" transform="matrix(.74505 .78478 -.6709 .6355 5689.563 1891.6)"/><rect x="682" y="8305" width="11.6" height="29.6" fill="#B410E1" rx="0" transform="matrix(.22568 .94027 -.98139 .34223 7375.992 4849.83)"/><rect x="401" y="7863" width="9.6" height="10.6" fill="#B410E1" rx="0" transform="matrix(-.10203 .89657 -1.06111 -.47671 10629.43 11326.954)"/><rect x="544" y="1317" width="11.6" height="25.6" fill="#FF8B4D" rx="0" transform="matrix(-.89152 .22664 -.55068 -.98169 2069.264 2578.148)"/><rect x="235" y="8579" width="15.6" height="23.6" fill="#FF8B4D" rx="0" transform="matrix(-.29919 .96573 -.93828 -.31378 9883.227 11009.165)"/><rect x="848" y="243" width="17.6" height="31.6" fill="#B410E1" rx="0" transform="matrix(-.9703 0 -.15175 -1.03061 1686.092 739.147)"/><rect x="238" y="978" width="16.6" height="25.6" fill="#FF3E74" rx="0" transform="matrix(-.59225 .73147 -.81484 -.6821 1304.1 1490.766)"/><rect x="452" y="6151" width="10.6" height="17.6" fill="#FFC647" rx="0" transform="matrix(-.42335 .86044 -.90782 -.517 6351.097 8990.979)"/><rect x="43" y="916" width="10.6" height="12.6" fill="#B410E1" rx="0" transform="matrix(-.92957 .22916 -.33733 -.9926 339.165 1836.102)"/><rect x="1625" y="2387" width="10.6" height="18.6" fill="#FF8B4D" rx="0" transform="matrix(-.70493 .34044 -.89007 -.98872 5797.43 4708.98)"/><rect x="80" y="7804" width="17.6" height="29.6" fill="#FF3E74" rx="0" transform="matrix(-.60044 .73415 -.8022 -.6846 7932.703 13098.616)"/><rect x="437" y="3361" width="15.6" height="26.6" fill="#B410E1" rx="0" transform="matrix(1.01251 .91963 -.52615 .50976 2845.633 1389.693)"/><rect x="997" y="6551" width="9.6" height="27.6" fill="#B410E1" rx="0" transform="matrix(.40553 .8851 -.91419 .47062 5664.545 2658.643)"/><rect x="1391" y="1455" width="14.6" height="29.6" fill="#FFC647" rx="0" transform="matrix(-.6523 .53513 -.82482 -.85638 3876.914 2176.76)"/><rect x="279" y="2213" width="14.6" height="42.6" fill="#FFC647" rx="0" transform="matrix(.90067 .63405 -.46493 .78298 1781.784 268.202)"/><rect x="55" y="8236" width="15.6" height="19.6" fill="#FF3E74" rx="0" transform="matrix(.79197 .62028 -.59848 .79393 4080.559 1667.98)"/><rect x="631" y="6809" width="11.6" height="11.6" fill="#B410E1" rx="0" transform="matrix(-.73827 .34232 -.77712 -.99418 7640.935 13578.836)"/><rect x="578" y="4202" width="17.6" height="43.6" fill="#B410E1" rx="0" transform="matrix(-.35643 .93773 -.9151 -.39804 3974.12 5468.86)"/><rect x="1044" y="2899" width="12.6" height="14.6" fill="#B410E1" rx="0" transform="matrix(-.8988 .31205 -.43837 -.9604 3268.341 5517.38)"/><rect x="1424" y="6393" width="13.6" height="20.6" fill="#FF8B4D" rx="0" transform="matrix(.66425 .84329 -.75446 .54764 6870.488 1539.64)"/><rect x="1331" y="4601" width="14.6" height="18.6" fill="#FF8B4D" rx="0" transform="matrix(.75031 .93758 -.73252 .41744 4490.43 1740.01)"/><rect x="430" y="7074" width="9.6" height="25.6" fill="#FFC647" rx="0" transform="matrix(.82855 .95419 -.74644 .3473 7831.007 4287.366)"/><rect x="1185" y="23" width="17.6" height="44.6" fill="#B410E1" rx="0" transform="matrix(.9743 .10614 -.15164 1.00986 17.273 -337.657)"/><rect x="21" y="6196" width="14.6" height="16.6" fill="#FFC647" rx="0" transform="matrix(-.97815 0 -.38818 -1.02234 3559.4 12553.223)"/><rect x="882" y="1391" width="16.6" height="24.6" fill="#FF8B4D" rx="0" transform="matrix(.54434 .83918 -.83814 .54497 1629.747 -139.671)"/><rect x="1348" y="4545" width="11.6" height="23.6" fill="#FFC647" rx="0" transform="matrix(-.9948 -.05273 -.01703 -1.00613 2530.629 9379.14)"/><rect x="806" y="3309" width="16.6" height="38.6" fill="#FF3E74" rx="0" transform="matrix(-.52566 .63279 -.93118 -.78143 5320.497 5499.43)"/><rect x="1352" y="8957" width="17.6" height="42.6" fill="#FF8B4D" rx="0" transform="matrix(-.48184 .84691 -.86785 -.55 9167.096 12955.058)"/><rect x="1845" y="6726" width="18.6" height="52.6" fill="#FF8B4D" rx="0" transform="matrix(-.34197 .93984 -.93955 -.34207 8714.102 7351.704)"/><rect x="463" y="7977" width="18.6" height="45.6" fill="#FF8B4D" rx="0" transform="matrix(-.44816 .74136 -.91609 -.71592 8580.119 13494.665)"/><rect x="39" y="3198" width="12.6" height="33.6" fill="#FF3E74" rx="0" transform="matrix(1.0769 .27669 .14144 .96493 650.11 104.16)"/><rect x="884" y="1830" width="16.6" height="44.6" fill="#FF8B4D" rx="0" transform="matrix(.08672 .9894 -1.03073 -.22842 3006.585 1549.899)"/><rect x="423" y="4536" width="15.6" height="28.6" fill="#FFC647" rx="0" transform="matrix(-.40928 .83982 -.92494 -.54539 5778.279 6647.6)"/><rect x="1802" y="7890" width="12.6" height="14.6" fill="#B410E1" rx="0" transform="matrix(.98849 .87247 -.50424 .56659 6257.985 2363.624)"/><rect x="1221" y="4238" width="10.6" height="29.6" fill="#B410E1" rx="0" transform="matrix(1.06063 .74136 -.32463 .71592 2613.385 604.736)"/><rect x="772" y="2012" width="11.6" height="31.6" fill="#FFC647" rx="0" transform="matrix(.87596 .93064 -.68452 .41435 2192.547 614.916)"/><rect x="1505" y="1627" width="14.6" height="38.6" fill="#FF3E74" rx="0" transform="matrix(-.70943 .56782 -.70935 -.84183 3786.367 2440.146)"/><rect x="210" y="7754" width="13.6" height="29.6" fill="#B410E1" rx="0" transform="matrix(-.34787 .85442 -.95302 -.5339 8378.034 11757.936)"/><rect x="711" y="8950" width="14.6" height="33.6" fill="#FF8B4D" rx="0" transform="matrix(-1.00724 .10454 .01792 -.99467 19.125 17823.281)"/><rect x="1045" y="6065" width="11.6" height="21.6" fill="#FF3E74" rx="0" transform="matrix(1.0088 .4027 -.10672 .94868 971.296 150.625)"/><rect x="1775" y="736" width="17.6" height="51.6" fill="#FF8B4D" rx="0" transform="matrix(-.9732 .26281 -.17297 -.98083 3690.694 725.658)"/><rect x="1705" y="8520" width="12.6" height="22.6" fill="#B410E1" rx="0" transform="matrix(.66113 .83179 -.7393 .58242 9246.886 1837.271)"/><rect x="17" y="5052" width="16.6" height="16.6" fill="#B410E1" rx="0" transform="matrix(.73917 .77904 -.68506 .63086 4548.428 1846.495)"/><rect x="305" y="5150" width="11.6" height="24.6" fill="#FFC647" rx="0" transform="matrix(-.85812 .31287 -.5552 -.96291 3991.35 10085.125)"/><rect x="43" y="7393" width="13.6" height="15.6" fill="#FF8B4D" rx="0" transform="matrix(.78854 .43944 -.65887 .90099 3582.339 707.395)"/><rect x="1049" y="8080" width="15.6" height="38.6" fill="#FF3E74" rx="0" transform="matrix(-.99128 .03495 -.2278 -1.00076 5095.505 16223.227)"/><rect x="1445" y="8488" width="15.6" height="41.6" fill="#FF8B4D" rx="0" transform="matrix(-.05266 1.00261 -.99 -.1409 9341.881 8481.264)"/><rect x="522" y="3319" width="15.6" height="17.6" fill="#FF3E74" rx="0" transform="matrix(-.25414 .96349 -.9602 -.29457 4376.564 3732.555)"/><rect x="1020" y="4848" width="14.6" height="35.6" fill="#FF8B4D" rx="0" transform="matrix(-.19623 .90768 -1.00172 -.46249 6546.244 6383.397)"/><rect x="1254" y="7080" width="16.6" height="46.6" fill="#B410E1" rx="0" transform="matrix(-.1759 1.00046 -1.00261 .01746 7488.145 5672.297)"/><rect x="1096" y="5565" width="9.6" height="27.6" fill="#FFC647" rx="0" transform="matrix(-.5503 .5922 -.9312 -.8151 8648.466 9609.307)"/><rect x="1305" y="8910" width="16.6" height="18.6" fill="#FFC647" rx="0" transform="matrix(.79255 .56469 -.59589 .83718 6351.525 526.018)"/><rect x="1844" y="4302" width="9.6" height="24.6" fill="#B410E1" rx="0" transform="matrix(.92915 .29277 -.3765 .95762 1135.397 -261.535)"/><rect x="814" y="2505" width="17.6" height="26.6" fill="#FFC647" rx="0" transform="matrix(.22454 .974 -.9707 .24285 3253.64 1033.346)"/><rect x="1374" y="8626" width="18.6" height="20.6" fill="#FFC647" rx="0" transform="matrix(.58598 .80169 -.8058 .60411 8127.33 2188.996)"/><rect x="318" y="7116" width="12.6" height="24.6" fill="#FFC647" rx="0" transform="matrix(-.26903 .9604 -.95382 -.31205 8459.518 8995.678)"/><rect x="1764" y="4103" width="16.6" height="29.6" fill="#FFC647" rx="0" transform="matrix(-.6135 .8121 -.78563 -.59003 6302.356 4953.074)"/><rect x="1179" y="1064" width="10.6" height="24.6" fill="#FFC647" rx="0" transform="matrix(.61527 .89591 -.80268 .4565 1592.499 -600.528)"/><rect x="450" y="8711" width="17.6" height="18.6" fill="#FF8B4D" rx="0" transform="matrix(-.57549 .76651 -.82172 -.64318 8346.317 13993.364)"/><rect x="59" y="4219" width="15.6" height="41.6" fill="#FF3E74" rx="0" transform="matrix(.91664 .81213 -.51517 .6345 2863.922 1512.013)"/><rect x="1218" y="5383" width="15.6" height="42.6" fill="#B410E1" rx="0" transform="matrix(-.13057 .7982 -1.13932 -.69386 9324.379 8597.784)"/><rect x="662" y="4818" width="16.6" height="40.6" fill="#B410E1" rx="0" transform="matrix(-.70958 .64289 -.70985 -.76616 5087.678 8102.591)"/><rect x="1509" y="8032" width="17.6" height="30.6" fill="#FF8B4D" rx="0" transform="matrix(.63163 .83448 -.75607 .58431 5766.633 2373.618)"/><rect x="666" y="8502" width="14.6" height="20.6" fill="#B410E1" rx="0" transform="matrix(-.69328 .59685 -.72124 -.8215 10169.6 14984.55)"/><rect x="905" y="6607" width="11.6" height="27.6" fill="#FFC647" rx="0" transform="matrix(-.99555 -.07335 -.60309 -1.0489 8192.093 13928.104)"/><rect x="1155" y="4575" width="14.6" height="28.6" fill="#FF3E74" rx="0" transform="matrix(.03926 .97496 -1.03474 -.22509 7256.094 4448.508)"/><rect x="603" y="8331" width="10.6" height="10.6" fill="#FFC647" rx="0" transform="matrix(1.04859 .15703 .25239 .99146 592.376 28.88)"/><rect x="1428" y="5711" width="11.6" height="27.6" fill="#B410E1" rx="0" transform="matrix(.84587 .66424 -.53243 .76412 4949.874 170.908)"/><rect x="1434" y="8982" width="17.6" height="38.6" fill="#FF8B4D" rx="0" transform="matrix(-.77083 .36173 -.64667 -.99384 8541.598 17922.032)"/><rect x="748" y="7873" width="12.6" height="30.6" fill="#FF8B4D" rx="0" transform="matrix(-.34613 .99146 -.9538 -.15703 7717.017 8313.164)"/><rect x="1610" y="6324" width="17.6" height="47.6" fill="#FFC647" rx="0" transform="matrix(.71088 .84187 -.72618 .54672 6857.262 1372.882)"/><rect x="369" y="3645" width="12.6" height="29.6" fill="#FF8B4D" rx="0" transform="matrix(-.94552 .29255 -.32557 -.95689 1921.667 7065.13)"/><rect x="1331" y="2329" width="13.6" height="35.6" fill="#FF8B4D" rx="0" transform="matrix(.70425 .57674 -.72812 .82366 1911.388 -498.34)"/><rect x="1697" y="3057" width="15.6" height="26.6" fill="#FF3E74" rx="0" transform="matrix(-.05221 .99197 -.99507 -.24733 4789.073 2500.918)"/><rect x="1701" y="8291" width="14.6" height="15.6" fill="#FF8B4D" rx="0" transform="matrix(.4274 .93773 -.88498 .39804 7109.443 3725.64)"/><rect x="1152" y="2031" width="9.6" height="27.6" fill="#B410E1" rx="0" transform="matrix(.90934 .42495 -.40314 .9113 1165.362 -431.789)"/><rect x="1820" y="3742" width="11.6" height="32.6" fill="#FF3E74" rx="0" transform="matrix(1.03358 .85828 -.46796 .57892 3077.51 504.717)"/><rect x="119" y="8893" width="12.6" height="20.6" fill="#FF3E74" rx="0" transform="matrix(-.61037 .54672 -.8892 -.84187 11015.04 16341.217)"/><rect x="16" y="5873" width="14.6" height="31.6" fill="#FFC647" rx="0" transform="matrix(-.78993 .66913 -.61716 -.74314 3264.28 10249.44)"/><rect x="21" y="5485" width="12.6" height="18.6" fill="#FF8B4D" rx="0" transform="matrix(.75124 .84805 -.65315 .59381 3499.376 2215.893)"/><rect x="1525" y="2654" width="13.6" height="25.6" fill="#FFC647" rx="0" transform="matrix(-.73682 .55127 -.63482 -.88222 3972.027 4614.309)"/><rect x="22" y="8160" width="14.6" height="26.6" fill="#FFC647" rx="0" transform="matrix(-.98829 -.08824 .03625 -1.00861 -1097.586 16424.218)"/><rect x="336" y="4457" width="16.6" height="46.6" fill="#FFC647" rx="0" transform="matrix(-.86158 .35886 -.5421 -.93486 4182.298 8527.161)"/><rect x="976" y="8637" width="15.6" height="24.6" fill="#FF3E74" rx="0" transform="matrix(-.64775 .67076 -.77143 -.74496 8903.04 14501.574)"/><rect x="1052" y="8672" width="11.6" height="30.6" fill="#FF3E74" rx="0" transform="matrix(.9492 .53065 -.36546 .84921 4457.317 804.06)"/><rect x="1621" y="4188" width="17.6" height="28.6" fill="#FF3E74" rx="0" transform="matrix(.1057 .98904 -1.02782 -.15665 6688.116 3334.057)"/><rect x="1696" y="5953" width="9.6" height="16.6" fill="#FFC647" rx="0" transform="matrix(1.00542 .25945 -.10202 .96828 1947.787 -371.14)"/><rect x="897" y="6251" width="13.6" height="30.6" fill="#FF3E74" rx="0" transform="matrix(-.05234 .99313 -.99863 -.1573 7208.813 6449.368)"/><rect x="1553" y="2279" width="13.6" height="27.6" fill="#FF3E74" rx="0" transform="matrix(-.60469 .86814 -.80277 -.50122 4229.142 1978.803)"/><rect x="523" y="7958" width="10.6" height="27.6" fill="#FF8B4D" rx="0" transform="matrix(-.9893 .07044 -.04836 -1.00737 162.1 16039.367)"/><rect x="258" y="7753" width="14.6" height="33.6" fill="#FF3E74" rx="0" transform="matrix(-.82488 .2777 -.7242 -.96848 8797.648 15253.6)"/><rect x="1101" y="7974" width="12.6" height="31.6" fill="#FF3E74" rx="0" transform="matrix(-.66196 .5739 -.76107 -.85084 8208.986 14408.037)"/><rect x="713" y="5515" width="17.6" height="24.6" fill="#FF3E74" rx="0" transform="matrix(.60856 .83937 -.78089 .56616 4105.156 1906.409)"/><rect x="1388" y="5435" width="9.6" height="20.6" fill="#B410E1" rx="0" transform="matrix(-.82713 .18258 -.78605 -1.03549 8628.263 11282.088)"/><rect x="1149" y="3382" width="15.6" height="42.6" fill="#FF3E74" rx="0" transform="matrix(.91852 .80547 -.47079 .67587 2027.128 547.225)"/><rect x="1379" y="1231" width="15.6" height="42.6" fill="#FF3E74" rx="0" transform="matrix(.39386 1.01632 -.9286 .14283 2058.385 -15.83)"/><rect x="859" y="3399" width="17.6" height="31.6" fill="#FF8B4D" rx="0" transform="matrix(-.30606 .9014 -.93974 -.49965 4152.122 4555.146)"/><rect x="623" y="980" width="9.6" height="22.6" fill="#B410E1" rx="0" transform="matrix(.92718 .27568 -.39394 .9614 295.366 -123.857)"/><rect x="1417" y="7430" width="18.6" height="23.6" fill="#FFC647" rx="0" transform="matrix(.7575 .71978 -.6578 .69508 6148.7 1192.713)"/><rect x="1656" y="3433" width="9.6" height="9.6" fill="#FFC647" rx="0" transform="matrix(.60204 .83106 -.7972 .56056 3809.384 14.35)"/><rect x="1152" y="4943" width="17.6" height="49.6" fill="#FF8B4D" rx="0" transform="matrix(-.12613 .8636 -1.08215 -.5189 8343.56 6685.677)"/><rect x="1067" y="3620" width="9.6" height="16.6" fill="#FFC647" rx="0" transform="matrix(.71947 .96056 -.72073 .42767 3124.103 1395.314)"/><rect x="47" y="3963" width="13.6" height="28.6" fill="#FFC647" rx="0" transform="matrix(-.75388 .60328 -.65715 -.80059 3266.502 7125.25)"/><rect x="1057" y="7974" width="18.6" height="33.6" fill="#B410E1" rx="0" transform="matrix(-.90067 .24565 -.45837 -.98526 6118.08 15789.925)"/><rect x="1533" y="698" width="17.6" height="44.6" fill="#B410E1" rx="0" transform="matrix(-.37132 .89099 -.91652 -.49388 2703.148 2.012)"/><rect x="1789" y="5675" width="16.6" height="39.6" fill="#B410E1" rx="0" transform="matrix(.58599 .94893 -.84054 .34538 6261.065 2275.009)"/><rect x="1866" y="6693" width="10.6" height="11.6" fill="#B410E1" rx="0" transform="matrix(-.97092 .03568 -.22409 -1.02172 5065.428 13874.074)"/><rect x="1663" y="4511" width="12.6" height="20.6" fill="#FFC647" rx="0" transform="matrix(.95608 .24325 -.27629 .97564 662.42 -120.477)"/><rect x="566" y="5271" width="11.6" height="11.6" fill="#FF3E74" rx="0" transform="matrix(.39907 1.0345 -1.05147 -.2199 7358.66 6042.479)"/><rect x="503" y="5333" width="16.6" height="42.6" fill="#FF8B4D" rx="0" transform="matrix(-.99444 .19093 -.12171 -.98223 1106.818 10533.665)"/><rect x="1663" y="71" width="12.6" height="12.6" fill="#FF8B4D" rx="0" transform="matrix(.87462 .42365 -.48481 .90852 246.773 -816.857)"/><rect x="688" y="2205" width="9.6" height="14.6" fill="#FFC647" rx="0" transform="matrix(1.00698 .19107 -.05317 .98297 309.526 -58.4)"/><rect x="685" y="7539" width="12.6" height="19.6" fill="#FFC647" rx="0" transform="matrix(-.49873 .80169 -.87155 -.60411 9206.942 11494.448)"/><rect x="1118" y="7816" width="15.6" height="26.6" fill="#FF8B4D" rx="0" transform="matrix(-.9543 .19093 -.32819 -.98223 5596.654 15343.808)"/><rect x="1214" y="8207" width="12.6" height="22.6" fill="#FF3E74" rx="0" transform="matrix(-.27096 .97542 -.9526 -.26136 10367.702 9004.451)"/><rect x="231" y="212" width="14.6" height="38.6" fill="#FFC647" rx="0" transform="matrix(.76718 .56056 -.64654 .83106 161.302 -77.842)"/><rect x="1493" y="3926" width="10.6" height="19.6" fill="#B410E1" rx="0" transform="matrix(.19522 1.01665 -1.0396 -.29152 5923.11 4075.822)"/><rect x="903" y="314" width="12.6" height="26.6" fill="#FFC647" rx="0" transform="matrix(.44614 1.00324 -.9181 .1769 848.219 -466.095)"/><rect x="806" y="3268" width="12.6" height="32.6" fill="#B410E1" rx="0" transform="matrix(1.02855 .52146 -.20591 .86785 1316.505 139.089)"/><rect x="1621" y="7350" width="18.6" height="26.6" fill="#FFC647" rx="0" transform="matrix(-1.0043 .24192 -.10556 -.9703 3009.997 14113.473)"/><rect x="458" y="6539" width="9.6" height="25.6" fill="#B410E1" rx="0" transform="matrix(-.65431 .8851 -.7819 -.47062 4972.267 9193.207)"/><rect x="622" y="4689" width="16.6" height="17.6" fill="#FF8B4D" rx="0" transform="matrix(-.71012 .63018 -.70991 -.77821 4660.859 7989.514)"/><rect x="1063" y="5022" width="16.6" height="43.6" fill="#FFC647" rx="0" transform="matrix(.63955 .80017 -.75007 .62516 5201.271 844.505)"/><rect x="141" y="6138" width="15.6" height="22.6" fill="#B410E1" rx="0" transform="matrix(-.70499 .51274 -.67846 -.92502 3992.18 11812.44)"/><rect x="1634" y="4006" width="12.6" height="14.6" fill="#FFC647" rx="0" transform="matrix(.3933 .83937 -.92608 .56616 4580.715 104.497)"/><rect x="1367" y="5626" width="11.6" height="23.6" fill="#FF8B4D" rx="0" transform="matrix(.32777 1.00261 -.95133 .1409 8152.618 3249.574)"/><rect x="852" y="1969" width="13.6" height="38.6" fill="#FF8B4D" rx="0" transform="matrix(-.4317 .86435 -.8766 -.56131 2702.057 2576.18)"/><rect x="107" y="6747" width="12.6" height="29.6" fill="#FFC647" rx="0" transform="matrix(1.04285 .74472 -.33573 .71916 3958.764 1844.944)"/><rect x="210" y="1748" width="13.6" height="35.6" fill="#FF8B4D" rx="0" transform="matrix(-.39323 .84912 -.92231 -.55143 2493.262 2521.084)"/><rect x="1606" y="1634" width="12.6" height="28.6" fill="#FF3E74" rx="0" transform="matrix(.57125 .76213 -.81554 .6625 2085.163 -899.08)"/><rect x="1608" y="3198" width="13.6" height="30.6" fill="#FFC647" rx="0" transform="matrix(-1.00201 -.03533 -.393 -1.01185 5425.19 6777.49)"/><rect x="1610" y="7632" width="12.6" height="25.6" fill="#B410E1" rx="0" transform="matrix(-.64944 .7546 -.74043 -.67945 7070.494 11904.405)"/><rect x="1788" y="1388" width="16.6" height="22.6" fill="#FF3E74" rx="0" transform="matrix(-.65977 .63172 -.76822 -.78011 4389.248 1198.992)"/><rect x="294" y="2216" width="16.6" height="34.6" fill="#FFC647" rx="0" transform="matrix(-.8645 .36934 -.45544 -.96216 1297.299 4345.814)"/><rect x="1331" y="2801" width="9.6" height="25.6" fill="#FFC647" rx="0" transform="matrix(.78789 .61576 -.61557 .78813 1965.914 -203.052)"/><rect x="360" y="4161" width="9.6" height="15.6" fill="#FF8B4D" rx="0" transform="matrix(.07027 .9854 -1.00242 .17375 4227.427 3072.238)"/><rect x="1001" y="6315" width="18.6" height="18.6" fill="#FFC647" rx="0" transform="matrix(.85322 .83342 -.53327 .65114 3637.338 1712.192)"/><rect x="972" y="7830" width="11.6" height="16.6" fill="#FF8B4D" rx="0" transform="matrix(-.65916 .85442 -.7585 -.5339 7298.162 11067.652)"/><rect x="383" y="8327" width="18.6" height="46.6" fill="#FF8B4D" rx="0" transform="matrix(-.3144 .6997 -1.08 -.7771 11962.742 14684.766)"/><rect x="230" y="2453" width="10.6" height="12.6" fill="#B410E1" rx="0" transform="matrix(-.65757 .79912 -.75586 -.60218 1989.566 3760.43)"/><rect x="40" y="6196" width="16.6" height="27.6" fill="#B410E1" rx="0" transform="matrix(.94178 .63086 -.42215 .77904 3831.972 1345.002)"/><rect x="640" y="2625" width="17.6" height="45.6" fill="#FF3E74" rx="0" transform="matrix(-.63152 .56616 -.83 -.83937 3741.21 4605.721)"/><rect x="1709" y="744" width="13.6" height="39.6" fill="#FFC647" rx="0" transform="matrix(-1.0054 -.10773 -.28322 -1.02497 3824.673 2159.308)"/><rect x="965" y="7315" width="14.6" height="26.6" fill="#FFC647" rx="0" transform="matrix(.46598 1.01247 -.98769 0 10044.876 6497.877)"/><rect x="272" y="572" width="9.6" height="21.6" fill="#FF8B4D" rx="0" transform="matrix(.8939 .27989 -.4554 .9761 285.458 -112.346)"/><rect x="787" y="1200" width="16.6" height="42.6" fill="#FFC647" rx="0" transform="matrix(-.96223 .10454 -.41034 -.99467 2454.026 2339.068)"/><rect x="631" y="6402" width="13.6" height="21.6" fill="#B410E1" rx="0" transform="matrix(1.05159 .64633 -.29397 .77026 4083.454 1128.058)"/><rect x="1797" y="8616" width="11.6" height="15.6" fill="#FFC647" rx="0" transform="matrix(-.9614 .03568 -.49666 -1.02172 10064.846 17753.765)"/><rect x="499" y="6338" width="15.6" height="35.6" fill="#B410E1" rx="0" transform="matrix(-.24673 1.00367 -1.00065 .01752 5878.913 5691.455)"/><rect x="134" y="5683" width="14.6" height="30.6" fill="#FF3E74" rx="0" transform="matrix(.99245 .2118 -.05225 .99646 98.851 17.737)"/><rect x="722" y="8700" width="12.6" height="14.6" fill="#FF3E74" rx="0" transform="matrix(-.76771 .69508 -.64369 -.71978 5974.364 14493.83)"/><rect x="667" y="5679" width="9.6" height="18.6" fill="#FF8B4D" rx="0" transform="matrix(.21256 1 -1 0 7426.39 5016.5)"/><rect x="519" y="2102" width="14.6" height="20.6" fill="#FFC647" rx="0" transform="matrix(-.93981 .05394 -.60703 -1.0292 2989.067 4389.115)"/><rect x="215" y="3315" width="12.6" height="15.6" fill="#FF8B4D" rx="0" transform="matrix(-.7725 .44384 -.66922 -.91 2968.867 6283.37)"/><rect x="1100" y="2631" width="10.6" height="24.6" fill="#FF3E74" rx="0" transform="matrix(.91331 .47126 -.40426 .88632 1567.738 -317.1)"/><rect x="1156" y="5600" width="14.6" height="41.6" fill="#B410E1" rx="0" transform="matrix(.82855 .95157 -.71614 .38446 5802.758 2621.43)"/><rect x="1106" y="2640" width="9.6" height="25.6" fill="#FFC647" rx="0" transform="matrix(-.47452 .68962 -.92308 -.7659 4446.364 4195.496)"/><rect x="965" y="8566" width="15.6" height="17.6" fill="#FF8B4D" rx="0" transform="matrix(-.90845 .48488 -.42347 -.87475 4736.016 15620.917)"/><rect x="1071" y="4889" width="14.6" height="36.6" fill="#FF3E74" rx="0" transform="matrix(-.95806 .20995 -.2556 -.98776 2923.103 9679.687)"/><rect x="1042" y="2838" width="15.6" height="21.6" fill="#FF8B4D" rx="0" transform="matrix(-.9063 .486 -.42262 -.87676 3205.197 4762.896)"/><rect x="484" y="3201" width="10.6" height="13.6" fill="#B410E1" rx="0" transform="matrix(.80936 .55928 -.5881 .82916 1811.206 282.894)"/><rect x="168" y="7032" width="16.6" height="38.6" fill="#FFC647" rx="0" transform="matrix(1.03719 .35962 .06895 .98805 254.407 78.136)"/><rect x="1669" y="3862" width="13.6" height="34.6" fill="#FF3E74" rx="0" transform="matrix(.77136 .8322 -.68134 .56133 4311.538 160.515)"/><rect x="1644" y="1267" width="10.6" height="28.6" fill="#B410E1" rx="0" transform="matrix(-.79408 .71802 -.59865 -.71802 3760.612 726.254)"/><rect x="484" y="6535" width="14.6" height="17.6" fill="#FF3E74" rx="0" transform="matrix(.12337 .96651 -1.00159 .25898 6298.914 4357.102)"/><rect x="1451" y="8148" width="13.6" height="37.6" fill="#FF8B4D" rx="0" transform="matrix(.9147 .45406 -.40716 .89114 4018.82 201.645)"/><rect x="913" y="7169" width="9.6" height="21.6" fill="#B410E1" rx="0" transform="matrix(-.44917 .86392 -.87684 -.53984 6852.214 10441.222)"/><rect x="724" y="1937" width="18.6" height="23.6" fill="#B410E1" rx="0" transform="matrix(-.86402 .21629 -.5585 -1.01757 2644.183 3983.498)"/><rect x="366" y="1586" width="17.6" height="34.6" fill="#FF3E74" rx="0" transform="matrix(.8262 .45427 -.57982 .89155 709.754 16.707)"/><rect x="1885" y="1712" width="13.6" height="37.6" fill="#FFC647" rx="0" transform="matrix(.60183 .8574 -.77547 .5568 1833.559 -452.849)"/><rect x="1868" y="7219" width="9.6" height="19.6" fill="#B410E1" rx="0" transform="matrix(-.69122 .8636 -.74261 -.5189 7923.188 9132.558)"/><rect x="648" y="6835" width="18.6" height="25.6" fill="#B410E1" rx="0" transform="matrix(-.12368 1.0042 -.96727 -.23184 6376.804 7939.2)"/><rect x="129" y="5659" width="11.6" height="11.6" fill="#B410E1" rx="0" transform="matrix(-.3449 .79973 -.99051 -.60264 7312.133 8977.901)"/><rect x="1638" y="3120" width="13.6" height="26.6" fill="#FF8B4D" rx="0" transform="matrix(-.4291 .8272 -.90844 -.57921 6084.257 3356.405)"/><rect x="1838" y="1386" width="16.6" height="48.6" fill="#FF3E74" rx="0" transform="matrix(.7843 .60513 -.61174 .80303 1367.402 -1033.525)"/><rect x="1848" y="1100" width="17.6" height="36.6" fill="#FF8B4D" rx="0" transform="matrix(.8834 .44268 -.44775 .90763 822.506 -979.622)"/><rect x="1828" y="3283" width="12.6" height="29.6" fill="#FF8B4D" rx="0" transform="matrix(.03672 .97324 -1.01696 .27907 4857.576 301.726)"/><rect x="1665" y="694" width="16.6" height="28.6" fill="#FF3E74" rx="0" transform="matrix(.89266 .96846 -.70767 .3525 1068.392 -744.693)"/><rect x="1039" y="6752" width="10.6" height="13.6" fill="#FF3E74" rx="0" transform="matrix(1.08418 .50375 -.10723 .87253 2874.557 463.703)"/><rect x="17" y="2546" width="9.6" height="10.6" fill="#B410E1" rx="0" transform="matrix(-.08084 .90987 -1.05425 -.50435 3118.349 3824.457)"/><rect x="1648" y="5311" width="14.6" height="32.6" fill="#B410E1" rx="0" transform="matrix(.40592 1.0263 -.97437 0 7180.88 4010.615)"/><rect x="767" y="5804" width="16.6" height="26.6" fill="#FF3E74" rx="0" transform="matrix(.94798 .51504 -.3639 .85717 3182.97 431.592)"/><rect x="1807" y="2766" width="15.6" height="18.6" fill="#FFC647" rx="0" transform="matrix(-.60852 .62932 -.83756 -.77715 5987.25 3790.023)"/><rect x="345" y="271" width="16.6" height="16.6" fill="#FF3E74" rx="0" transform="matrix(.99946 .58866 -.27138 .8407 120.295 -81.916)"/><rect x="1514" y="5226" width="17.6" height="34.6" fill="#FF8B4D" rx="0" transform="matrix(-1.0199 .48957 -.20263 -.88322 3251.58 8914.723)"/><rect x="726" y="7411" width="12.6" height="13.6" fill="#B410E1" rx="0" transform="matrix(-.40697 .92733 -.91395 -.37466 7420.364 9530.682)"/><rect x="734" y="56" width="10.6" height="17.6" fill="#FFC647" rx="0" transform="matrix(.91571 .62516 -.42754 .80017 100.247 -318.872)"/><rect x="1574" y="8231" width="10.6" height="12.6" fill="#B410E1" rx="0" transform="matrix(.65836 .877 -.71272 .56952 5339.707 2643.764)"/><rect x="401" y="6753" width="15.6" height="45.6" fill="#FF8B4D" rx="0" transform="matrix(.53005 .88322 -.83842 .48957 7178.976 3040.032)"/><rect x="813" y="7172" width="9.6" height="20.6" fill="#FF8B4D" rx="0" transform="matrix(-.57565 .7756 -.8063 -.6508 8707.974 11092.734)"/><rect x="701" y="6548" width="13.6" height="22.6" fill="#B410E1" rx="0" transform="matrix(-.9948 .01748 -.22833 -1.00122 3954.395 13151.326)"/><rect x="1573" y="3567" width="18.6" height="33.6" fill="#B410E1" rx="0" transform="matrix(.61552 .81013 -.78718 .5886 3735.735 109.615)"/><rect x="1806" y="1159" width="17.6" height="37.6" fill="#FF3E74" rx="0" transform="matrix(1.03724 .31287 -.00392 .96291 169.106 -236.676)"/><rect x="1788" y="6628" width="9.6" height="12.6" fill="#FFC647" rx="0" transform="matrix(-.05409 .8868 -1.09386 -.55413 10804.934 9268.844)"/><rect x="1366" y="7733" width="11.6" height="34.6" fill="#FF8B4D" rx="0" transform="matrix(.10258 .99146 -.99237 .15703 7816.106 5293.185)"/><rect x="1691" y="2779" width="15.6" height="38.6" fill="#FF8B4D" rx="0" transform="matrix(-.07792 .86245 -1.10693 -.58173 5809.028 3448.147)"/><rect x="1176" y="3499" width="17.6" height="50.6" fill="#FFC647" rx="0" transform="matrix(-.51206 .78038 -.85175 -.65482 4662.21 5137.782)"/><rect x="700" y="4626" width="12.6" height="25.6" fill="#FFC647" rx="0" transform="matrix(-.96223 -.09218 -.14974 -1.0536 1653.438 9834.525)"/><rect x="42" y="4162" width="15.6" height="32.6" fill="#B410E1" rx="0" transform="matrix(-.78458 .65967 -.61335 -.75887 2870.32 7310.987)"/><rect x="127" y="8790" width="13.6" height="31.6" fill="#FFC647" rx="0" transform="matrix(-.01868 .97925 -1.01583 -.2808 9699.074 11173.42)"/><rect x="583" y="1539" width="17.6" height="51.6" fill="#FFC647" rx="0" transform="matrix(.44393 .96962 -.91239 .2598 1926.692 636.21)"/><rect x="1249" y="8459" width="13.6" height="32.6" fill="#FF3E74" rx="0" transform="matrix(.46841 .75655 -.9146 .65766 6940.125 1863.533)"/><rect x="488" y="1177" width="12.6" height="33.6" fill="#FF3E74" rx="0" transform="matrix(.54847 .89893 -.84492 .43844 1358.242 234.68)"/><rect x="1113" y="364" width="17.6" height="47.6" fill="#FF8B4D" rx="0" transform="matrix(-.15588 .95762 -.9966 -.29277 1747.1 -631.709)"/><rect x="1182" y="1029" width="13.6" height="14.6" fill="#FFC647" rx="0" transform="matrix(.96053 .76936 -.43492 .69273 712.221 -277.659)"/><rect x="1319" y="478" width="16.6" height="22.6" fill="#FFC647" rx="0" transform="matrix(-1.02205 .15797 .12272 -.9974 2581.268 581.11)"/><rect x="1263" y="2909" width="16.6" height="36.6" fill="#FFC647" rx="0" transform="matrix(.59933 1.01626 -.8675 .19754 3566.416 1397.72)"/><rect x="830" y="5328" width="17.6" height="46.6" fill="#B410E1" rx="0" transform="matrix(-.80852 .74724 -.61027 -.67282 4322.242 8236.797)"/><rect x="169" y="925" width="15.6" height="38.6" fill="#B410E1" rx="0" transform="matrix(-.85256 .4232 -.53463 -.90755 997.258 1717.214)"/><rect x="1416" y="2250" width="12.6" height="24.6" fill="#FFC647" rx="0" transform="matrix(-.55435 .95481 -.85645 -.32877 3931.528 1448.153)"/><rect x="1671" y="5039" width="15.6" height="24.6" fill="#FF3E74" rx="0" transform="matrix(-.4285 .79973 -.92752 -.60264 8413.273 6664.849)"/><rect x="699" y="5288" width="11.6" height="13.6" fill="#FF3E74" rx="0" transform="matrix(-.48481 .7356 -.87462 -.7356 5677.43 8873.315)"/><rect x="709" y="1547" width="10.6" height="18.6" fill="#FF3E74" rx="0" transform="matrix(-.99525 -.08764 .03504 -1.00168 1285.176 3252.892)"/><rect x="936" y="2158" width="15.6" height="38.6" fill="#FF3E74" rx="0" transform="matrix(.45343 .9757 -.92022 .22526 3129.588 716.507)"/><rect x="299" y="8909" width="14.6" height="17.6" fill="#FF8B4D" rx="0" transform="matrix(-.97446 .10467 -.28225 -.99589 5176.998 17750.805)"/><rect x="1549" y="5642" width="10.6" height="26.6" fill="#FFC647" rx="0" transform="matrix(.13833 .9901 -.98809 .15682 6422.956 3338.23)"/><rect x="1256" y="8660" width="10.6" height="20.6" fill="#B410E1" rx="0" transform="matrix(-.22778 .84072 -1.04154 -.54597 13256.793 12431.815)"/><rect x="606" y="4039" width="17.6" height="29.6" fill="#B410E1" rx="0" transform="matrix(-.90547 .24192 -.50191 -.9703 4292.347 7838.451)"/><rect x="1570" y="174" width="13.6" height="15.6" fill="#FFC647" rx="0" transform="matrix(.91866 .48845 -.38999 .88119 192.607 -554.982)"/><rect x="1399" y="2960" width="16.6" height="25.6" fill="#FF8B4D" rx="0" transform="matrix(.2917 .95469 -.95268 .3102 4028.17 583.988)"/><rect x="810" y="3752" width="10.6" height="21.6" fill="#FFC647" rx="0" transform="matrix(-.7351 .32682 -.79733 -1.00586 5200.824 7561.91)"/><rect x="495" y="7455" width="16.6" height="18.6" fill="#FF3E74" rx="0" transform="matrix(.20935 1.00967 -.98676 .01762 8158.337 6895.315)"/><rect x="949" y="1019" width="18.6" height="34.6" fill="#FF3E74" rx="0" transform="matrix(.63482 .88222 -.73682 .55127 952.534 -105.633)"/><rect x="893" y="8260" width="12.6" height="26.6" fill="#B410E1" rx="0" transform="matrix(.1317 1.03528 -.96593 0 7726.833 7583.243)"/><rect x="656" y="7055" width="11.6" height="26.6" fill="#B410E1" rx="0" transform="matrix(-.83955 .4073 -.56957 -.9148 6867.115 13230.144)"/><rect x="138" y="8279" width="17.6" height="17.6" fill="#FFC647" rx="0" transform="matrix(-.55018 .62304 -.87491 -.8268 8353.877 15088.094)"/><rect x="351" y="4227" width="17.6" height="28.6" fill="#FFC647" rx="0" transform="matrix(-.98769 0 -.06786 -1.01247 626.913 8592.455)"/><rect x="1301" y="6435" width="9.6" height="12.6" fill="#FF8B4D" rx="0" transform="matrix(.65938 .95036 -.75866 .42313 5450.504 2849.257)"/><rect x="734" y="7045" width="18.6" height="36.6" fill="#FF3E74" rx="0" transform="matrix(.9773 .22619 -.18788 .97974 2325.588 -103.129)"/><rect x="625" y="8988" width="11.6" height="27.6" fill="#FF8B4D" rx="0" transform="matrix(.98642 .74047 -.43064 .6905 6323.922 2418.881)"/><rect x="708" y="4378" width="14.6" height="36.6" fill="#FF8B4D" rx="0" transform="matrix(.77715 .60218 -.62932 .79912 2926.089 427.4)"/><rect x="1687" y="4157" width="15.6" height="29.6" fill="#FFC647" rx="0" transform="matrix(.67602 .74873 -.72692 .67416 3121.29 298.512)"/><rect x="389" y="3721" width="9.6" height="27.6" fill="#FF3E74" rx="0" transform="matrix(.05017 1.01732 -.9856 -.05332 3721.626 3609.849)"/><rect x="1895" y="1482" width="13.6" height="17.6" fill="#FF3E74" rx="0" transform="matrix(.28318 1.01845 -1.00666 -.0891 3164.127 90.986)"/><rect x="984" y="4786" width="18.6" height="35.6" fill="#FFC647" rx="0" transform="matrix(-.86603 .37829 -.5 -.9363 4255.423 9065.424)"/><rect x="1155" y="8327" width="17.6" height="40.6" fill="#B410E1" rx="0" transform="matrix(.94338 .29602 -.29252 .96823 1156.406 105.058)"/><rect x="1156" y="7011" width="14.6" height="21.6" fill="#FF3E74" rx="0" transform="matrix(.7882 .4258 -.65825 .91311 3901.697 -28.063)"/><rect x="1086" y="2025" width="9.6" height="26.6" fill="#FFC647" rx="0" transform="matrix(-.78089 .56616 -.60856 -.83937 2989.582 3304.386)"/><rect x="1298" y="3151" width="18.6" height="34.6" fill="#FF8B4D" rx="0" transform="matrix(-.54993 .7211 -.85572 -.69635 5561.841 4340.456)"/><rect x="138" y="6898" width="12.6" height="22.6" fill="#FFC647" rx="0" transform="matrix(-.12863 .8574 -1.08278 -.5568 9503.647 10663.392)"/><rect x="861" y="1315" width="16.6" height="22.6" fill="#FF8B4D" rx="0" transform="matrix(.97699 .29688 -.17276 .97106 171.595 -66.412)"/><rect x="527" y="6358" width="13.6" height="25.6" fill="#B410E1" rx="0" transform="matrix(-.99655 -.03555 -.41027 -1.0181 5293.825 12979.625)"/><rect x="1587" y="4202" width="11.6" height="28.6" fill="#B410E1" rx="0" transform="matrix(-.56375 .92955 -.83649 -.39457 5808.4 4175.487)"/><rect x="1236" y="5390" width="14.6" height="32.6" fill="#FFC647" rx="0" transform="matrix(-.80938 .61576 -.58806 -.78813 5334.837 8879.901)"/><rect x="1785" y="8065" width="18.6" height="31.6" fill="#B410E1" rx="0" transform="matrix(-.7029 .59879 -.70257 -.82416 8438.517 14015.039)"/><rect x="1792" y="5773" width="15.6" height="37.6" fill="#FF3E74" rx="0" transform="matrix(-.73854 .77715 -.6887 -.62932 6303.859 8037.99)"/><rect x="230" y="6572" width="10.6" height="16.6" fill="#FF3E74" rx="0" transform="matrix(.98337 .49965 -.22734 .9014 1731.726 589.95)"/><rect x="1119" y="1984" width="14.6" height="21.6" fill="#FF3E74" rx="0" transform="matrix(-.30987 1.00261 -.95385 -.1409 3346.334 968.253)"/><rect x="1809" y="7974" width="11.6" height="33.6" fill="#FFC647" rx="0" transform="matrix(-.8476 .25586 -.5088 -1.0262 7117.912 16351.546)"/><rect x="154" y="5954" width="16.6" height="25.6" fill="#B410E1" rx="0" transform="matrix(.95866 .2082 -.29302 .97949 1547.055 80.083)"/><rect x="555" y="8685" width="9.6" height="9.6" fill="#FF3E74" rx="0" transform="matrix(-.3941 .99386 -.92957 -.19319 8407.415 9723.532)"/><rect x="736" y="510" width="15.6" height="34.6" fill="#B410E1" rx="0" transform="matrix(.83816 .37604 -.5848 .93073 363.78 -308.242)"/><rect x="487" y="4769" width="13.6" height="19.6" fill="#B410E1" rx="0" transform="matrix(.99016 -.10556 .05296 1.0043 163.771 -37.804)"/><rect x="673" y="8816" width="12.6" height="24.6" fill="#B410E1" rx="0" transform="matrix(.96507 .79393 -.50556 .62028 7382.588 2896.33)"/><rect x="457" y="4306" width="17.6" height="25.6" fill="#FFC647" rx="0" transform="matrix(.8977 .71018 -.4785 .73541 2423.092 910.918)"/><rect x="353" y="404" width="15.6" height="32.6" fill="#FFC647" rx="0" transform="matrix(-.97882 .32601 -.22465 -.94682 738.813 719.53)"/><rect x="229" y="1917" width="12.6" height="13.6" fill="#FFC647" rx="0" transform="matrix(-.55495 .79235 -.8285 -.61905 2294.595 2903.562)"/><rect x="377" y="1423" width="12.6" height="26.6" fill="#B410E1" rx="0" transform="matrix(-.91229 .3092 -.42636 -.95164 1570.731 2671.232)"/><rect x="1354" y="1451" width="16.6" height="25.6" fill="#FF8B4D" rx="0" transform="matrix(.83025 .34459 -.62093 .94675 911.557 -558.755)"/><rect x="967" y="4143" width="12.6" height="14.6" fill="#FF3E74" rx="0" transform="matrix(-.70879 .7671 -.70888 -.64367 4462.06 6024.1)"/><rect x="25" y="5977" width="16.6" height="39.6" fill="#B410E1" rx="0" transform="matrix(1.13456 .54861 -.0071 .87796 1989.497 722.48)"/><rect x="1636" y="5559" width="9.6" height="22.6" fill="#FFC647" rx="0" transform="matrix(.83044 .6508 -.54689 .7756 4747.478 -77.697)"/><rect x="949" y="8842" width="15.6" height="33.6" fill="#FFC647" rx="0" transform="matrix(-.10469 .99708 -.98447 -.17581 8989.849 9613.822)"/><rect x="248" y="2812" width="16.6" height="24.6" fill="#FF8B4D" rx="0" transform="matrix(.877 .63086 -.50214 .77904 2097.628 444.436)"/><rect x="1355" y="1971" width="12.6" height="28.6" fill="#FF8B4D" rx="0" transform="matrix(-.96826 .34249 -.25951 -.94098 3127.77 3315.858)"/><rect x="613" y="3888" width="11.6" height="13.6" fill="#FF3E74" rx="0" transform="matrix(.92892 .47532 -.35679 .89395 1294.161 216.907)"/><rect x="617" y="8552" width="11.6" height="33.6" fill="#FF3E74" rx="0" transform="matrix(.81666 1 -.76583 .28675 9184.656 5667.521)"/><rect x="882" y="6705" width="17.6" height="22.6" fill="#B410E1" rx="0" transform="matrix(1.06336 .67332 -.26193 .77456 3557.48 1119.98)"/><rect x="1763" y="5359" width="10.6" height="11.6" fill="#FF3E74" rx="0" transform="matrix(.96787 -.1051 .30573 1 0 0)"/><rect x="924" y="1920" width="16.6" height="19.6" fill="#FF3E74" rx="0" transform="matrix(.20819 .96607 -.97934 .25886 2561.308 513.312)"/><rect x="739" y="6740" width="13.6" height="40.6" fill="#FF3E74" rx="0" transform="matrix(.98526 .06976 -.24565 .99756 479.661 -35.557)"/><rect x="39" y="5708" width="15.6" height="46.6" fill="#FFC647" rx="0" transform="matrix(.97325 .76213 -.46609 .6625 4317.854 1905.186)"/><rect x="820" y="6035" width="10.6" height="22.6" fill="#FFC647" rx="0" transform="matrix(-1.00594 .13936 -.01781 -.99163 1343.44 11883.705)"/><rect x="310" y="4541" width="15.6" height="22.6" fill="#B410E1" rx="0" transform="matrix(-.27482 .91578 -.96961 -.40773 5782.005 6095.152)"/><rect x="1387" y="5368" width="18.6" height="41.6" fill="#FF3E74" rx="0" transform="matrix(-.65825 .43206 -.90287 -.92656 9028.168 10075.329)"/><rect x="92" y="5318" width="9.6" height="15.6" fill="#FF8B4D" rx="0" transform="matrix(.97446 .54464 -.33553 .83867 3117.335 806.487)"/><rect x="1694" y="4076" width="18.6" height="35.6" fill="#B410E1" rx="0" transform="matrix(.06976 1.01496 -.99756 -.17896 5668.312 3522.349)"/><rect x="1302" y="2172" width="13.6" height="39.6" fill="#FF3E74" rx="0" transform="matrix(-.35849 .77781 -.97403 -.67614 4222.045 2982.089)"/><rect x="1352" y="3563" width="9.6" height="27.6" fill="#FFC647" rx="0" transform="matrix(.86782 .63279 -.42867 .83974 1219.317 155.523)"/><rect x="1266" y="2077" width="12.6" height="32.6" fill="#FF3E74" rx="0" transform="matrix(.22416 .97324 -.96321 .27907 3202.231 69.345)"/><rect x="162" y="8811" width="10.6" height="22.6" fill="#FFC647" rx="0" transform="matrix(-.2238 .92945 -.98549 -.37552 10933.116 11968.067)"/><rect x="1232" y="6754" width="12.6" height="25.6" fill="#FF8B4D" rx="0" transform="matrix(-.88496 .48957 -.44608 -.88322 4128.828 12311.132)"/><rect x="1430" y="6363" width="9.6" height="11.6" fill="#FFC647" rx="0" transform="matrix(.76007 .55928 -.66117 .82916 3656.519 310.614)"/><rect x="1494" y="8476" width="9.6" height="24.6" fill="#FF8B4D" rx="0" transform="matrix(-1.01858 -.25586 -.17694 -1.0262 5315.123 18098.598)"/><rect x="1070" y="3246" width="12.6" height="31.6" fill="#B410E1" rx="0" transform="matrix(-.97945 -.14343 .00274 -1.02058 1750.51 7013.47)"/><rect x="576" y="7336" width="11.6" height="13.6" fill="#FFC647" rx="0" transform="matrix(-.66655 .36173 -.93317 -.99384 10127.828 14630.233)"/><rect x="683" y="3283" width="10.6" height="13.6" fill="#B410E1" rx="0" transform="matrix(.85522 .41073 -.51382 .92252 1845.743 -124.56)"/><rect x="1006" y="3917" width="15.6" height="28.6" fill="#FF3E74" rx="0" transform="matrix(.74982 .65967 -.65334 .75887 2397.701 385.746)"/><rect x="1376" y="7293" width="11.6" height="30.6" fill="#FF8B4D" rx="0" transform="matrix(-.97251 .08749 -.31419 -1 6065.91 14616.6)"/><rect x="1073" y="8162" width="10.6" height="29.6" fill="#FF8B4D" rx="0" transform="matrix(-.1237 .9614 -1.00467 -.27568 10578.493 9413.11)"/><rect x="72" y="7371" width="13.6" height="34.6" fill="#FF8B4D" rx="0" transform="matrix(-.57384 .79876 -.81952 -.6019 6307.89 11773.8)"/><rect x="1351" y="408" width="13.6" height="35.6" fill="#FF3E74" rx="0" transform="matrix(.89176 .45845 -.43107 .89976 367.728 -770.632)"/><rect x="1130" y="5697" width="17.6" height="50.6" fill="#FF3E74" rx="0" transform="matrix(-.77714 .37512 -.74231 -.92846 8262.435 10667.7)"/><rect x="1514" y="4586" width="14.6" height="23.6" fill="#FF3E74" rx="0" transform="matrix(-.9785 .06985 -.32286 -.99893 5875.624 9004.7)"/><rect x="128" y="1332" width="15.6" height="41.6" fill="#FFC647" rx="0" transform="matrix(.15643 1.03255 -.98769 -.12678 1450.701 1423.03)"/><rect x="1719" y="173" width="15.6" height="16.6" fill="#FF8B4D" rx="0" transform="matrix(-.53064 .87475 -.84904 -.48488 2782.255 -1211.173)"/><rect x="998" y="5558" width="17.6" height="34.6" fill="#B410E1" rx="0" transform="matrix(1.04311 .17535 .21305 .99449 194.114 -4.309)"/><rect x="273" y="1656" width="12.6" height="36.6" fill="#B410E1" rx="0" transform="matrix(.09854 .95157 -1.0907 -.38446 2543.85 2116.71)"/><rect x="989" y="489" width="17.6" height="38.6" fill="#B410E1" rx="0" transform="matrix(.15863 .99863 -1.01525 -.08737 1457.5 -373.948)"/><rect x="175" y="2306" width="10.6" height="21.6" fill="#FF8B4D" rx="0" transform="matrix(.80277 .50122 -.60469 .86814 1315.75 202.515)"/><rect x="1489" y="5028" width="11.6" height="15.6" fill="#B410E1" rx="0" transform="matrix(-.83 .83937 -.63152 -.56616 5069.514 6395.44)"/><rect x="696" y="6769" width="15.6" height="22.6" fill="#B410E1" rx="0" transform="matrix(.6685 .76792 -.7413 .64436 5966.962 1821.692)"/><rect x="1318" y="5778" width="10.6" height="29.6" fill="#FFC647" rx="0" transform="matrix(.98803 .12217 -.13866 .99497 1117.836 -225.059)"/><rect x="399" y="8129" width="12.6" height="34.6" fill="#FF3E74" rx="0" transform="matrix(.13969 1.02068 -.99442 -.10728 8593.346 8700.107)"/><rect x="1578" y="8693" width="12.6" height="35.6" fill="#B410E1" rx="0" transform="matrix(.49032 .95157 -.85279 .38446 7441.848 4220.031)"/><rect x="1561" y="2022" width="14.6" height="20.6" fill="#FF3E74" rx="0" transform="matrix(.91509 .34223 -.40784 .94027 742.669 -360.552)"/><rect x="1310" y="8147" width="16.6" height="46.6" fill="#FFC647" rx="0" transform="matrix(-.1051 .99405 -1.02076 .1397 8520.968 5603.077)"/><rect x="1612" y="2646" width="14.6" height="27.6" fill="#FF8B4D" rx="0" transform="matrix(-1.01982 -.25437 -.15901 -1.02023 3972.374 6311.453)"/><rect x="1155" y="5784" width="10.6" height="22.6" fill="#B410E1" rx="0" transform="matrix(-1.00675 .05234 .10547 -.99878 905.568 11502.552)"/><rect x="1065" y="5247" width="16.6" height="25.6" fill="#FF3E74" rx="0" transform="matrix(.30983 .96848 -.9437 .2777 6516.654 2627.86)"/><rect x="466" y="2832" width="10.6" height="30.6" fill="#FF8B4D" rx="0" transform="matrix(-.76604 .68293 -.64279 -.73236 2662.546 4585.974)"/><rect x="1523" y="5338" width="16.6" height="23.6" fill="#FF3E74" rx="0" transform="matrix(-.98891 -.01778 -.4088 -1.01856 6536.446 11123.78)"/><rect x="217" y="8357" width="9.6" height="20.6" fill="#B410E1" rx="0" transform="matrix(-.5256 .65482 -.90075 -.78038 9207.273 14794.867)"/><rect x="470" y="5508" width="17.6" height="33.6" fill="#B410E1" rx="0" transform="matrix(-.99363 .08781 -.03094 -1.00368 140.931 11086.655)"/><rect x="838" y="3569" width="9.6" height="14.6" fill="#FFC647" rx="0" transform="matrix(.19046 1 -.97998 .1051 4123.023 2446.198)"/><rect x="44" y="2763" width="14.6" height="15.6" fill="#FFC647" rx="0" transform="matrix(-.90281 .14408 -.51661 -1.0252 1870.936 5617.781)"/><rect x="1151" y="4159" width="9.6" height="25.6" fill="#FFC647" rx="0" transform="matrix(-.43818 .67216 -.96554 -.80105 6407.02 7090.089)"/><rect x="445" y="4775" width="15.6" height="16.6" fill="#B410E1" rx="0" transform="matrix(-.88444 .37604 -.47024 -.93073 3186.742 9104.585)"/><rect x="732" y="5276" width="9.6" height="25.6" fill="#B410E1" rx="0" transform="matrix(-.9007 .4118 -.40531 -.92493 4363.243 9760.468)"/><rect x="887" y="7631" width="12.6" height="35.6" fill="#B410E1" rx="0" transform="matrix(.24507 1 -.98716 .0524 9306.49 6401.46)"/><rect x="1725" y="6729" width="16.6" height="32.6" fill="#FF8B4D" rx="0" transform="matrix(-.94173 .07222 -.3797 -1.03275 6304.593 14050.8)"/><rect x="399" y="1137" width="11.6" height="26.6" fill="#FF3E74" rx="0" transform="matrix(-.98017 -.0535 -.01295 -1.02094 642.713 2432.389)"/><rect x="1796" y="1638" width="10.6" height="30.6" fill="#B410E1" rx="0" transform="matrix(-1.04913 -.23184 -.2309 -1.0042 4519.723 4180.266)"/><rect x="117" y="368" width="13.6" height="28.6" fill="#B410E1" rx="0" transform="matrix(-.61747 .85012 -.79047 -.53121 489.39 471.481)"/><rect x="1025" y="7149" width="13.6" height="28.6" fill="#FF3E74" rx="0" transform="matrix(.52202 1.0489 -.91688 .07335 8114.888 5890.895)"/><rect x="772" y="1089" width="10.6" height="23.6" fill="#FF3E74" rx="0" transform="matrix(.26759 1.00324 -1.04395 -.1769 2030.62 666.803)"/><rect x="1599" y="301" width="13.6" height="29.6" fill="#FF3E74" rx="0" transform="matrix(-.98892 .1746 -.1188 -.99023 3154.57 516.912)"/><rect x="149" y="4460" width="15.6" height="28.6" fill="#B410E1" rx="0" transform="matrix(-.51504 .8121 -.85717 -.59003 4072.782 7000.653)"/><rect x="706" y="2059" width="13.6" height="38.6" fill="#FF8B4D" rx="0" transform="matrix(-.9647 .05332 -.34885 -1.01732 2358.441 4293.148)"/><rect x="1419" y="6568" width="16.6" height="28.6" fill="#B410E1" rx="0" transform="matrix(-.63408 .69476 -.78272 -.71945 8178.898 10351.208)"/><rect x="682" y="5720" width="9.6" height="24.6" fill="#FFC647" rx="0" transform="matrix(-.8582 .55928 -.51568 -.82916 4032.51 10089.216)"/><rect x="1213" y="8222" width="18.6" height="49.6" fill="#FFC647" rx="0" transform="matrix(.35923 .99817 -.97671 .0698 11503.644 6408.432)"/><rect x="1851" y="6476" width="11.6" height="19.6" fill="#B410E1" rx="0" transform="matrix(-.95368 .10467 -.48002 -.99589 8879.871 12847.878)"/><rect x="1032" y="5404" width="14.6" height="35.6" fill="#FFC647" rx="0" transform="matrix(-1.03952 -.25046 -.17655 -1.00452 3979.742 11406.907)"/><rect x="637" y="326" width="18.6" height="24.6" fill="#FF8B4D" rx="0" transform="matrix(.20915 .9512 -.98334 .30906 815.18 -392.299)"/><rect x="1715" y="6188" width="9.6" height="9.6" fill="#FFC647" rx="0" transform="matrix(-.34574 .78813 -.9987 -.61576 10521.103 8680.641)"/><rect x="1840" y="5034" width="13.6" height="17.6" fill="#B410E1" rx="0" transform="matrix(.99633 -.1051 .03492 1 0 0)"/><rect x="1687" y="6701" width="13.6" height="20.6" fill="#FF3E74" rx="0" transform="matrix(.99394 .56045 -.19363 .89691 1564.502 325.772)"/><rect x="1224" y="7999" width="17.6" height="23.6" fill="#FF8B4D" rx="0" transform="matrix(.08702 .989 -.9942 .19224 9227.114 5100.181)"/><rect x="255" y="3743" width="18.6" height="28.6" fill="#FF3E74" rx="0" transform="matrix(.97763 .13994 -.18974 .99572 914.272 -48.694)"/><rect x="597" y="3912" width="16.6" height="46.6" fill="#B410E1" rx="0" transform="matrix(-.59159 .92764 -.81461 -.41301 4035.445 4892.393)"/><rect x="1165" y="2890" width="10.6" height="30.6" fill="#FF8B4D" rx="0" transform="matrix(.59677 .76412 -.78993 .66424 3004.861 -104.111)"/><rect x="1083" y="2939" width="14.6" height="17.6" fill="#FF8B4D" rx="0" transform="matrix(.89699 .61604 -.47519 .7885 2131.557 -86.253)"/><rect x="1803" y="5580" width="16.6" height="36.6" fill="#FF3E74" rx="0" transform="matrix(-.95612 .14022 -.32859 -.9977 5789.664 11152.173)"/><rect x="1606" y="3916" width="12.6" height="18.6" fill="#B410E1" rx="0" transform="matrix(1.07909 .55304 -.14654 .8516 1654.769 -24.894)"/><rect x="1372" y="2182" width="12.6" height="22.6" fill="#FF3E74" rx="0" transform="matrix(-.9845 -.01778 -.15587 -1.01856 3034.14 4719.73)"/><rect x="54" y="2071" width="12.6" height="30.6" fill="#FF8B4D" rx="0" transform="matrix(.88069 .4551 -.46887 .89318 802.51 199.628)"/><rect x="1436" y="7022" width="12.6" height="36.6" fill="#FF8B4D" rx="0" transform="matrix(.52834 .84187 -.84472 .54672 7110.818 1850.81)"/><rect x="132" y="1992" width="16.6" height="42.6" fill="#FF8B4D" rx="0" transform="matrix(-.42662 .8322 -.91387 -.56133 2181.694 3038.94)"/><rect x="561" y="7462" width="12.6" height="35.6" fill="#FF8B4D" rx="0" transform="matrix(-.08716 .96618 -.9962 -.43017 8068.08 10344.63)"/><rect x="1745" y="3456" width="15.6" height="30.6" fill="#FF8B4D" rx="0" transform="matrix(-.9848 -.16545 -.17365 -1.0446 4081.756 7990.954)"/><rect x="1760" y="5550" width="15.6" height="30.6" fill="#B410E1" rx="0" transform="matrix(-.34385 .96725 -.94172 -.25917 6821.457 5390.422)"/><rect x="534" y="5727" width="12.6" height="33.6" fill="#FFC647" rx="0" transform="matrix(.92385 .63018 -.44598 .77821 4241.664 905.099)"/><rect x="108" y="6347" width="11.6" height="28.6" fill="#B410E1" rx="0" transform="matrix(-.77792 .66954 -.6296 -.7436 3650.525 11019.33)"/><rect x="1497" y="5314" width="11.6" height="13.6" fill="#FF3E74" rx="0" transform="matrix(.71048 1.00388 -.84512 .21338 6557.023 3023.767)"/><rect x="130" y="7081" width="16.6" height="32.6" fill="#B410E1" rx="0" transform="matrix(.731 .71802 -.66174 .71802 3859.321 1926.416)"/><rect x="1127" y="5201" width="9.6" height="13.6" fill="#FF3E74" rx="0" transform="matrix(-.57327 .85442 -.81217 -.5339 5067.457 7160.177)"/><rect x="762" y="1306" width="12.6" height="34.6" fill="#B410E1" rx="0" transform="matrix(.95587 .2758 -.29223 .96185 443.24 -188.244)"/><rect x="352" y="1295" width="11.6" height="31.6" fill="#FF8B4D" rx="0" transform="matrix(-.83977 .30006 -.58587 -.98146 1548.132 2572.54)"/><rect x="1338" y="7510" width="9.6" height="21.6" fill="#FF3E74" rx="0" transform="matrix(-.46626 .89591 -.8786 -.4565 9222.364 9609.811)"/><rect x="1574" y="8225" width="11.6" height="28.6" fill="#FF3E74" rx="0" transform="matrix(.27757 .99163 -.96943 .13936 9856.852 5607.259)"/><rect x="250" y="6769" width="13.6" height="18.6" fill="#B410E1" rx="0" transform="matrix(-.82968 .51535 -.55961 -.85769 4381.538 12468.604)"/><rect x="1658" y="3009" width="12.6" height="29.6" fill="#FF3E74" rx="0" transform="matrix(.99193 -.01762 -.08661 1.00967 372.749 -233.822)"/><rect x="1394" y="1309" width="9.6" height="24.6" fill="#FFC647" rx="0" transform="matrix(-.42255 .90645 -.90617 -.42268 3209.824 587.438)"/><rect x="1633" y="7345" width="9.6" height="27.6" fill="#FF8B4D" rx="0" transform="matrix(-.4336 .67945 -.9902 -.7546 11683.86 12087.797)"/><rect x="1130" y="6621" width="10.6" height="14.6" fill="#FFC647" rx="0" transform="matrix(.31131 .87939 -.95742 .50771 6903.476 2064.474)"/><rect x="850" y="6680" width="10.6" height="23.6" fill="#B410E1" rx="0" transform="matrix(-.7688 .36284 -.75327 -.94522 8382.953 12842.14)"/><rect x="1454" y="3250" width="9.6" height="16.6" fill="#FFC647" rx="0" transform="matrix(.7272 .93172 -.70276 .47473 2817.134 798.283)"/><rect x="1026" y="2530" width="15.6" height="18.6" fill="#B410E1" rx="0" transform="matrix(.26461 1.00244 -.99756 0 3801 1575.266)"/><rect x="706" y="8321" width="10.6" height="29.6" fill="#FFC647" rx="0" transform="matrix(1.00518 .54464 -.28823 .83867 4947.465 957.408)"/><rect x="1253" y="300" width="13.6" height="26.6" fill="#FF3E74" rx="0" transform="matrix(.94653 .25917 -.3259 .96725 165.147 -382.27)"/><rect x="495" y="6978" width="10.6" height="25.6" fill="#B410E1" rx="0" transform="matrix(1.0807 .76079 -.27081 .73469 3638.782 1646.408)"/><rect x="582" y="7325" width="18.6" height="37.6" fill="#FF3E74" rx="0" transform="matrix(-.91159 .37552 -.4067 -.92945 4884.607 13906.086)"/><rect x="300" y="2448" width="13.6" height="29.6" fill="#FFC647" rx="0" transform="matrix(-.26262 .88537 -.97785 -.51117 2928.097 3515.29)"/><rect x="1703" y="866" width="16.6" height="41.6" fill="#B410E1" rx="0" transform="matrix(-.4395 .92733 -.9008 -.37466 3182.046 -338.009)"/><rect x="1399" y="6154" width="15.6" height="33.6" fill="#B410E1" rx="0" transform="matrix(-.9888 -.10728 -.08623 -1.02068 3103.098 12944.928)"/><rect x="87" y="4795" width="12.6" height="28.6" fill="#B410E1" rx="0" transform="matrix(1.02543 .6345 -.26354 .81213 2117.16 867.564)"/><rect x="1670" y="6358" width="9.6" height="21.6" fill="#FF3E74" rx="0" transform="matrix(-.25645 .95157 -.94728 -.38446 7427.31 7610.315)"/><rect x="792" y="942" width="18.6" height="29.6" fill="#FF3E74" rx="0" transform="matrix(-.9235 .20947 -.42915 -.9855 2062.815 1830.257)"/><rect x="1198" y="2796" width="11.6" height="28.6" fill="#FF8B4D" rx="0" transform="matrix(.09547 .98616 -1.03087 -.17389 4878.546 2048.746)"/><rect x="1152" y="8672" width="9.6" height="14.6" fill="#B410E1" rx="0" transform="matrix(-.95566 .03582 -.55293 -1.02568 9626.658 17807.11)"/><rect x="720" y="239" width="15.6" height="33.6" fill="#FF8B4D" rx="0" transform="matrix(-.63858 .7264 -.75996 -.70149 1361.918 8.845)"/><rect x="739" y="6605" width="9.6" height="24.6" fill="#FF3E74" rx="0" transform="matrix(.94873 .8268 -.49455 .62304 4635.762 2078.747)"/><rect x="658" y="3811" width="15.6" height="44.6" fill="#B410E1" rx="0" transform="matrix(-.46537 .7731 -.87449 -.6961 4187.28 6177.835)"/><rect x="1712" y="3316" width="11.6" height="12.6" fill="#B410E1" rx="0" transform="matrix(-.40996 .81358 -.9202 -.61308 5606.898 4295.465)"/><rect x="547" y="8484" width="13.6" height="21.6" fill="#FFC647" rx="0" transform="matrix(-.74688 .59685 -.64747 -.8215 5715.79 15240.369)"/><rect x="1039" y="4742" width="11.6" height="22.6" fill="#B410E1" rx="0" transform="matrix(-.14111 .93172 -1.00139 -.47473 6129.265 6355.822)"/><rect x="1689" y="6816" width="12.6" height="24.6" fill="#FFC647" rx="0" transform="matrix(-.92691 .24933 -.29314 -1 3989.827 13656.6)"/><rect x="497" y="2212" width="9.6" height="16.6" fill="#FFC647" rx="0" transform="matrix(-.14297 .86392 -1.06818 -.53984 3523.117 3082.926)"/><rect x="1219" y="8077" width="16.6" height="48.6" fill="#B410E1" rx="0" transform="matrix(-.3898 .9707 -.9184 -.27835 9284.357 8992.43)"/><rect x="1624" y="6498" width="18.6" height="30.6" fill="#FF3E74" rx="0" transform="matrix(.75904 .7576 -.66014 .65857 5042.11 1129.388)"/><rect x="1591" y="1433" width="12.6" height="22.6" fill="#B410E1" rx="0" transform="matrix(-.87813 .67416 -.50807 -.74873 3624.548 1252.732)"/><rect x="899" y="4593" width="12.6" height="15.6" fill="#B410E1" rx="0" transform="matrix(-.17291 .98146 -.96603 -.30006 5000.8 5301.816)"/><rect x="1275" y="5231" width="11.6" height="27.6" fill="#FFC647" rx="0" transform="matrix(-.3311 .92493 -.93374 -.4118 7766.197 6017.13)"/><rect x="1357" y="4641" width="11.6" height="23.6" fill="#FF3E74" rx="0" transform="matrix(-.07374 .95469 -1.0235 -.3102 6981.255 4914.265)"/><rect x="394" y="7623" width="14.6" height="34.6" fill="#FF3E74" rx="0" transform="matrix(.50984 1.04505 -.93908 .0365 8740.407 7064.783)"/><rect x="1851" y="7704" width="17.6" height="23.6" fill="#FF3E74" rx="0" transform="matrix(.29858 .99467 -.97397 .10454 10452.626 5026.8)"/><rect x="1638" y="6234" width="16.6" height="23.6" fill="#FFC647" rx="0" transform="matrix(1.00125 .6438 -.27176 .82402 2404.671 542.608)"/><rect x="934" y="5514" width="11.6" height="32.6" fill="#B410E1" rx="0" transform="matrix(-.73124 .6821 -.6819 -.73147 5494.366 8918.078)"/><rect x="1644" y="2212" width="12.6" height="14.6" fill="#FF3E74" rx="0" transform="matrix(.81956 .6019 -.5738 .79876 1686.022 -575.514)"/><rect x="1324" y="7593" width="11.6" height="16.6" fill="#FF3E74" rx="0" transform="matrix(-.98354 .05234 -.33738 -.99878 7245.212 15146.944)"/><rect x="1458" y="2121" width="13.6" height="33.6" fill="#FF8B4D" rx="0" transform="matrix(.36723 .98784 -.95415 .15646 3454.298 330.769)"/><rect x="1501" y="631" width="13.6" height="15.6" fill="#FFC647" rx="0" transform="matrix(-.0345 .99677 -.99653 -.19375 2317.575 -1006.227)"/><rect x="1291" y="1803" width="9.6" height="17.6" fill="#FFC647" rx="0" transform="matrix(.66155 .79783 -.73653 .62334 1596.544 -146.158)"/><rect x="590" y="7523" width="17.6" height="39.6" fill="#FF8B4D" rx="0" transform="matrix(.95413 .41325 -.17208 .97354 510.982 158.277)"/><rect x="1341" y="1058" width="9.6" height="18.6" fill="#FF3E74" rx="0" transform="matrix(.13808 1.01856 -.98419 -.01778 2163.99 -22.908)"/><rect x="1668" y="8063" width="10.6" height="10.6" fill="#B410E1" rx="0" transform="matrix(.97742 .13926 -.2262 .99087 864.927 -100.937)"/><rect x="1628" y="6820" width="17.6" height="44.6" fill="#FF3E74" rx="0" transform="matrix(.27902 .88811 -.97132 .49229 7482.68 1731.64)"/><rect x="1214" y="4172" width="16.6" height="45.6" fill="#FF3E74" rx="0" transform="matrix(.06974 .99635 -.99757 .08717 5174.421 2632.644)"/><rect x="1644" y="8172" width="13.6" height="23.6" fill="#B410E1" rx="0" transform="matrix(-.98548 -.08781 .12407 -1.00368 934.005 16745.333)"/><rect x="941" y="6010" width="11.6" height="30.6" fill="#FF8B4D" rx="0" transform="matrix(1.114 .41084 .19038 .96788 560.917 112.208)"/><rect x="798" y="2353" width="17.6" height="24.6" fill="#FFC647" rx="0" transform="matrix(-.56206 .68241 -.86266 -.7318 3809.454 3573.828)"/><rect x="603" y="2407" width="13.6" height="30.6" fill="#FFC647" rx="0" transform="matrix(-.96502 .15885 -.20242 -1.00293 1377.98 4862.344)"/><rect x="589" y="8596" width="15.6" height="17.6" fill="#FF8B4D" rx="0" transform="matrix(.06794 .97925 -1.04067 -.2808 10892.236 10552.584)"/><rect x="324" y="6893" width="11.6" height="13.6" fill="#FFC647" rx="0" transform="matrix(-1.0316 .38039 -.0756 -.94149 230.079 13212.27)"/><rect x="1354" y="5595" width="12.6" height="35.6" fill="#FF8B4D" rx="0" transform="matrix(1.03146 .29457 -.02105 .96349 990.768 -28.733)"/><rect x="460" y="1984" width="18.6" height="30.6" fill="#FF8B4D" rx="0" transform="matrix(-.96581 .56616 -.3344 -.83937 1388.793 3337.425)"/><rect x="299" y="8435" width="13.6" height="32.6" fill="#FFC647" rx="0" transform="matrix(-.66872 .70808 -.74355 -.70808 7680.864 14202.916)"/><rect x="139" y="4035" width="16.6" height="21.6" fill="#FFC647" rx="0" transform="matrix(.66777 .8151 -.7417 .5922 2978.734 1547.903)"/><rect x="1798" y="5651" width="18.6" height="52.6" fill="#B410E1" rx="0" transform="matrix(.93054 .48666 -.37608 .87796 2464.418 -28.57)"/><rect x="1504" y="6799" width="10.6" height="15.6" fill="#B410E1" rx="0" transform="matrix(-.56954 .71293 -.81289 -.73826 7652.212 11104.42)"/><rect x="1507" y="1923" width="11.6" height="25.6" fill="#FF3E74" rx="0" transform="matrix(-.40829 .94552 -.91704 -.32557 3736.297 1135.654)"/><rect x="602" y="3409" width="11.6" height="26.6" fill="#FF8B4D" rx="0" transform="matrix(-.98982 .12194 -.1391 -.99315 1625.342 6768.269)"/><rect x="679" y="3428" width="12.6" height="34.6" fill="#FF8B4D" rx="0" transform="matrix(.1419 .95164 -1.00472 .3092 3568.772 1703.907)"/><rect x="1380" y="7649" width="10.6" height="28.6" fill="#FF8B4D" rx="0" transform="matrix(-.81501 .67747 -.57091 -.7524 7149.367 12271.319)"/><rect x="902" y="4691" width="15.6" height="36.6" fill="#FF3E74" rx="0" transform="matrix(.0875 .9761 -.9994 .27989 5457.31 2342.747)"/><rect x="1140" y="7715" width="16.6" height="31.6" fill="#FFC647" rx="0" transform="matrix(.988 -.01772 -.17416 1.01527 1228.74 -300.191)"/><rect x="1788" y="1713" width="10.6" height="28.6" fill="#FFC647" rx="0" transform="matrix(-.43577 .69994 -.96139 -.7506 4612.951 2182.614)"/><rect x="314" y="2572" width="14.6" height="37.6" fill="#FF8B4D" rx="0" transform="matrix(-.08718 .99042 -.99742 -.1392 3114.205 2627.595)"/><rect x="1650" y="113" width="13.6" height="36.6" fill="#FF3E74" rx="0" transform="matrix(-.13109 .91266 -1.03176 -.44513 2076.52 -1030.21)"/><rect x="334" y="1771" width="15.6" height="27.6" fill="#B410E1" rx="0" transform="matrix(-1.01814 -.23523 -.1589 -1.0189 1138.695 3788.216)"/><rect x="1398" y="124" width="9.6" height="13.6" fill="#FF3E74" rx="0" transform="matrix(-.98841 .27631 -.17211 -.9636 2771.499 -32.675)"/><rect x="657" y="4018" width="13.6" height="38.6" fill="#FF8B4D" rx="0" transform="matrix(.96512 .31205 -.23423 .9604 1807.138 -140.568)"/><rect x="994" y="5708" width="14.6" height="20.6" fill="#B410E1" rx="0" transform="matrix(.92653 .54386 -.35596 .87036 1901.304 427.95)"/><rect x="878" y="2153" width="13.6" height="30.6" fill="#FF3E74" rx="0" transform="matrix(.97452 .20791 -.22499 .97815 472.534 -136.578)"/><rect x="43" y="576" width="14.6" height="14.6" fill="#B410E1" rx="0" transform="matrix(-.97452 .24192 -.22499 -.9703 220.37 1137.105)"/><rect x="142" y="4942" width="15.6" height="20.6" fill="#FFC647" rx="0" transform="matrix(.9826 -.01772 .13469 1.01527 748.055 -99.39)"/><rect x="1879" y="6154" width="14.6" height="29.6" fill="#FF3E74" rx="0" transform="matrix(-.91283 .10773 -.59757 -1.02497 8949.802 12758.72)"/><rect x="1635" y="4105" width="17.6" height="37.6" fill="#FFC647" rx="0" transform="matrix(.4339 .94522 -.8914 .36284 4299.923 1334.144)"/><rect x="88" y="2623" width="14.6" height="19.6" fill="#B410E1" rx="0" transform="matrix(.84782 .3473 -.55 .95419 1325.462 70.71)"/><rect x="1058" y="7890" width="18.6" height="43.6" fill="#FFC647" rx="0" transform="matrix(.43887 .98496 -.93789 .17367 10282.61 5467.846)"/><rect x="1796" y="3338" width="10.6" height="25.6" fill="#FFC647" rx="0" transform="matrix(-.9789 -.0716 -.03073 -1.0238 3205.061 7326.183)"/><rect x="739" y="5382" width="12.6" height="17.6" fill="#FFC647" rx="0" transform="matrix(-.4719 .80463 -.8872 -.60633 6071.168 8151.247)"/><rect x="1449" y="6603" width="16.6" height="18.6" fill="#FF8B4D" rx="0" transform="matrix(.19018 .97318 -.9766 .26076 7974.902 3290.91)"/><rect x="590" y="7214" width="13.6" height="26.6" fill="#FF3E74" rx="0" transform="matrix(-.64359 .73147 -.76696 -.6821 6776.721 11730.936)"/><rect x="1644" y="5134" width="11.6" height="30.6" fill="#B410E1" rx="0" transform="matrix(.27697 1.04014 -.96624 -.01816 6266.46 3999.837)"/><rect x="1513" y="5206" width="16.6" height="21.6" fill="#B410E1" rx="0" transform="matrix(1.00986 .27564 -.10614 .96126 1458.573 -217.237)"/><rect x="436" y="1913" width="11.6" height="24.6" fill="#FF3E74" rx="0" transform="matrix(.92927 .32963 -.33493 .9573 936.839 -133.402)"/><rect x="1821" y="713" width="17.6" height="29.6" fill="#FF8B4D" rx="0" transform="matrix(-.95355 .15797 -.30978 -.9974 3817.252 1421.809)"/><rect x="1025" y="8160" width="15.6" height="33.6" fill="#FFC647" rx="0" transform="matrix(-.99081 -.01772 -.33545 -1.01527 6272.956 16678.89)"/><rect x="454" y="4049" width="18.6" height="41.6" fill="#FF3E74" rx="0" transform="matrix(-.96547 .05285 -.49912 -1.00844 4206.095 8214.591)"/><rect x="699" y="6487" width="10.6" height="23.6" fill="#B410E1" rx="0" transform="matrix(.72523 .84423 -.6767 .59114 4358.197 2238.138)"/><rect x="103" y="4796" width="18.6" height="27.6" fill="#FF8B4D" rx="0" transform="matrix(.9234 .7524 -.49763 .67747 3340.507 1484.59)"/><rect x="573" y="3996" width="11.6" height="33.6" fill="#FF3E74" rx="0" transform="matrix(-.33417 .82954 -.98008 -.55953 5925.753 5757.745)"/><rect x="452" y="7300" width="16.6" height="25.6" fill="#FF3E74" rx="0" transform="matrix(.19316 1.03018 -.99786 -.14478 8058.672 8029.359)"/><rect x="334" y="6044" width="14.6" height="22.6" fill="#B410E1" rx="0" transform="matrix(-.8637 .14478 -.76145 -1.03018 7365.619 12341.773)"/><rect x="1829" y="2322" width="16.6" height="21.6" fill="#FFC647" rx="0" transform="matrix(.31345 .87454 -.9625 .50491 3361.622 -710.064)"/><rect x="1782" y="6391" width="11.6" height="27.6" fill="#FF8B4D" rx="0" transform="matrix(-.31953 .98083 -.93393 -.26281 8980.73 6019.297)"/><rect x="1624" y="652" width="10.6" height="26.6" fill="#FF3E74" rx="0" transform="matrix(.49696 1.01071 -.90177 .17822 1529.012 -723.867)"/><rect x="1004" y="7879" width="11.6" height="12.6" fill="#FFC647" rx="0" transform="matrix(-.73409 .61576 -.68443 -.78813 7700.66 13495.784)"/><rect x="911" y="8400" width="13.6" height="22.6" fill="#B410E1" rx="0" transform="matrix(-.64017 .6961 -.7256 -.7731 6234.704 14538.316)"/></svg>